<?xml version="1.0" encoding="UTF-8"?>
<svg id="Calque_1" data-name="Calque 1" xmlns="http://www.w3.org/2000/svg" xmlns:xlink="http://www.w3.org/1999/xlink" viewBox="0 0 1414.61 822.92">
  <defs>
    <style>
      .cls-1, .cls-2 {
        fill: #fff;
      }

      .cls-2 {
        fill-rule: evenodd;
      }

      .cls-3 {
        stroke: gold;
        stroke-linecap: round;
        stroke-width: 14px;
      }

      .cls-3, .cls-4 {
        fill: none;
      }

      .cls-5 {
        fill: gold;
      }

      .cls-6 {
        clip-path: url(#clippath);
      }
    </style>
    <clipPath id="clippath">
      <rect class="cls-4" x="1245.5" y="22.55" width="120" height="150"/>
    </clipPath>
  </defs>
  <path class="cls-2" d="m647.07,7.96h100.87c7.49,0,13.73,0,18.68.67,5.23.7,9.96,2.25,13.75,6.04,3.8,3.8,5.35,8.52,6.05,13.75.67,4.96.67,11.21.67,18.69v.87c0,7.48,0,13.73-.67,18.68-.7,5.23-2.25,9.96-6.05,13.75-3.79,3.8-8.52,5.35-13.75,6.05-4.95.67-11.19.67-18.68.67h-100.87c-7.48,0-13.73,0-18.68-.67-5.23-.7-9.96-2.25-13.75-6.04-3.8-3.8-5.35-8.53-6.05-13.75-.67-4.96-.67-11.21-.67-18.69v-.87c0-7.48,0-13.73.67-18.68.7-5.23,2.25-9.96,6.04-13.75,3.8-3.8,8.53-5.35,13.75-6.05,4.96-.67,11.21-.67,18.69-.67Zm-17.03,13.06c-3.84.52-5.49,1.41-6.58,2.5-1.08,1.08-1.97,2.73-2.5,6.57-.52,4.02-.55,9.43-.55,17.46s.02,13.43.56,17.46c.52,3.84,1.41,5.49,2.5,6.58,1.08,1.08,2.73,1.97,6.57,2.5,4.03.53,9.42.55,17.46.55h100c8.03,0,13.43-.02,17.46-.56,3.84-.52,5.49-1.41,6.58-2.5,1.08-1.08,1.97-2.72,2.5-6.57.53-4.02.55-9.42.55-17.46s-.02-13.43-.56-17.46c-.52-3.84-1.41-5.49-2.5-6.58-1.08-1.08-2.73-1.98-6.57-2.5-4.03-.53-9.42-.55-17.46-.55h-100c-8.03,0-13.43.02-17.46.56Zm17.46,11.94c1.66,0,3.25.66,4.42,1.83,1.17,1.17,1.83,2.76,1.83,4.42v16.67c0,1.66-.66,3.25-1.83,4.42-1.17,1.17-2.76,1.83-4.42,1.83s-3.25-.66-4.42-1.83c-1.17-1.17-1.83-2.76-1.83-4.42v-16.67c0-1.66.66-3.25,1.83-4.42,1.17-1.17,2.76-1.83,4.42-1.83Zm25,0c1.66,0,3.25.66,4.42,1.83,1.17,1.17,1.83,2.76,1.83,4.42v16.67c0,1.66-.66,3.25-1.83,4.42-1.17,1.17-2.76,1.83-4.42,1.83s-3.25-.66-4.42-1.83c-1.17-1.17-1.83-2.76-1.83-4.42v-16.67c0-1.66.66-3.25,1.83-4.42,1.17-1.17,2.76-1.83,4.42-1.83Zm31.25,14.58c0-1.66.66-3.25,1.83-4.42,1.17-1.17,2.76-1.83,4.42-1.83h37.5c1.66,0,3.25.66,4.42,1.83,1.17,1.17,1.83,2.76,1.83,4.42s-.66,3.25-1.83,4.42c-1.17,1.17-2.76,1.83-4.42,1.83h-37.5c-1.66,0-3.25-.66-4.42-1.83-1.17-1.17-1.83-2.76-1.83-4.42Zm-56.68,52.08h100.87c7.49,0,13.73,0,18.68.67,5.23.7,9.96,2.25,13.75,6.05,3.8,3.79,5.35,8.52,6.05,13.75.67,4.95.67,11.19.67,18.68v.87c0,7.49,0,13.73-.67,18.68-.7,5.23-2.25,9.96-6.05,13.75-3.79,3.8-8.52,5.35-13.75,6.05-4.95.67-11.19.67-18.68.67h-100.87c-7.48,0-13.73,0-18.68-.67-5.23-.7-9.96-2.25-13.75-6.05-3.8-3.79-5.35-8.52-6.05-13.75-.67-4.95-.67-11.19-.67-18.68v-.87c0-7.49,0-13.73.67-18.68.7-5.23,2.25-9.96,6.04-13.75,3.8-3.8,8.53-5.35,13.75-6.05,4.96-.67,11.21-.67,18.69-.67Zm-17.03,13.05c-3.84.52-5.49,1.42-6.58,2.5-1.08,1.08-1.97,2.73-2.5,6.58-.53,4.02-.55,9.42-.55,17.45s.02,13.43.56,17.46c.52,3.84,1.41,5.49,2.5,6.57,1.08,1.08,2.73,1.98,6.57,2.5,4.03.53,9.42.55,17.46.55h100c8.03,0,13.43-.02,17.46-.56,3.84-.52,5.49-1.41,6.58-2.5,1.08-1.08,1.97-2.73,2.5-6.57.53-4.02.55-9.43.55-17.46s-.02-13.43-.56-17.46c-.52-3.84-1.41-5.49-2.5-6.57-1.08-1.08-2.73-1.98-6.57-2.5-4.03-.53-9.42-.55-17.46-.55h-100c-8.03,0-13.43.02-17.46.55Zm17.46,11.95c1.66,0,3.25.66,4.42,1.83,1.17,1.17,1.83,2.76,1.83,4.42v16.67c0,1.66-.66,3.25-1.83,4.42-1.17,1.17-2.76,1.83-4.42,1.83s-3.25-.66-4.42-1.83c-1.17-1.17-1.83-2.76-1.83-4.42v-16.67c0-1.66.66-3.25,1.83-4.42,1.17-1.17,2.76-1.83,4.42-1.83Zm25,0c1.66,0,3.25.66,4.42,1.83,1.17,1.17,1.83,2.76,1.83,4.42v16.67c0,1.66-.66,3.25-1.83,4.42-1.17,1.17-2.76,1.83-4.42,1.83s-3.25-.66-4.42-1.83c-1.17-1.17-1.83-2.76-1.83-4.42v-16.67c0-1.66.66-3.25,1.83-4.42,1.17-1.17,2.76-1.83,4.42-1.83Zm31.25,14.58c0-1.66.66-3.25,1.83-4.42,1.17-1.17,2.76-1.83,4.42-1.83h37.5c1.66,0,3.25.66,4.42,1.83,1.17,1.17,1.83,2.76,1.83,4.42s-.66,3.25-1.83,4.42c-1.17,1.17-2.76,1.83-4.42,1.83h-37.5c-1.66,0-3.25-.66-4.42-1.83-1.17-1.17-1.83-2.76-1.83-4.42Z"/>
  <path class="cls-1" d="m168.75,270.8h-6.25v-75c0-4.97-1.98-9.74-5.49-13.26-3.52-3.52-8.28-5.49-13.26-5.49H31.25c-4.97,0-9.74,1.98-13.26,5.49-3.52,3.52-5.49,8.28-5.49,13.26v75h-6.25c-1.66,0-3.25.66-4.42,1.83-1.17,1.17-1.83,2.76-1.83,4.42v12.5c0,4.97,1.98,9.74,5.49,13.26,3.52,3.52,8.29,5.49,13.26,5.49h137.5c4.97,0,9.74-1.98,13.26-5.49,3.52-3.52,5.49-8.29,5.49-13.26v-12.5c0-1.66-.66-3.25-1.83-4.42-1.17-1.17-2.76-1.83-4.42-1.83ZM25,195.8c0-1.66.66-3.25,1.83-4.42,1.17-1.17,2.76-1.83,4.42-1.83h112.5c1.66,0,3.25.66,4.42,1.83,1.17,1.17,1.83,2.76,1.83,4.42v75H25v-75Zm137.5,93.75c0,1.66-.66,3.25-1.83,4.42-1.17,1.17-2.76,1.83-4.42,1.83H18.75c-1.66,0-3.25-.66-4.42-1.83-1.17-1.17-1.83-2.76-1.83-4.42v-6.25h150v6.25Zm-56.25-81.25c0,1.66-.66,3.25-1.83,4.42-1.17,1.17-2.76,1.83-4.42,1.83h-25c-1.66,0-3.25-.66-4.42-1.83-1.17-1.17-1.83-2.76-1.83-4.42s.66-3.25,1.83-4.42c1.17-1.17,2.76-1.83,4.42-1.83h25c1.66,0,3.25.66,4.42,1.83,1.17,1.17,1.83,2.76,1.83,4.42Z"/>
  <g class="cls-6">
    <path class="cls-1" d="m1355.18,90.66l-1.09-1.9c.03-13.59-6.31-19.13-13.71-23.35,2.24-.59,4.54-1.05,5.19-3.87,3.86-.97,4.66-2.75,5.04-4.63,1-.67,4.36-2.55,4.01-5.77,1.89-1.29,2.95-2.96,2.39-5.3,2.03-2.2,2.56-4.01,1.71-5.68,2.45-3.02,1.35-4.57.32-6.12,1.83-3.28.21-6.8-4.89-6.21-2.04-2.96-6.46-2.29-7.14-2.29-.76-.94-1.77-1.76-4.86-1.38-2.01-1.79-4.25-1.46-6.58-.62-2.74-2.14-4.57-.41-6.66.23-3.33-1.05-4.1.38-5.72,1-3.63-.76-4.75.88-6.49,2.61l-2.03-.03c-5.48,3.16-8.2,9.61-9.17,12.92-.97-3.31-3.69-9.76-9.17-12.92l-2.03.03c-1.74-1.73-2.86-3.37-6.49-2.61-1.65-.59-2.39-2.05-5.72-1-1.36-.41-2.62-1.29-4.1-1.26-.77.03-1.62.29-2.56,1.03-2.33-.88-4.57-1.17-6.58.62-3.09-.38-4.13.41-4.86,1.38-.68,0-5.1-.67-7.14,2.29-5.1-.59-6.69,2.93-4.86,6.21-1.04,1.58-2.13,3.13.32,6.12-.85,1.67-.32,3.49,1.71,5.68-.53,2.34.53,4.01,2.39,5.3-.35,3.22,3.01,5.1,4.01,5.77.38,1.88,1.18,3.63,5.04,4.63.65,2.78,2.95,3.28,5.19,3.87-7.4,4.22-13.74,9.76-13.71,23.35l-1.09,1.9c-8.49,5.04-16.13,21.3-4.19,34.48.77,4.13,2.1,7.09,3.25,10.37,1.73,13.24,13.12,19.42,16.09,20.16,4.4,3.28,9.08,6.39,15.39,8.55,5.99,6.04,12.48,8.32,18.96,8.32h.3c6.51,0,12.97-2.29,18.93-8.32,6.34-2.17,10.99-5.27,15.39-8.55,3-.73,14.36-6.91,16.1-20.16,1.14-3.28,2.47-6.24,3.24-10.37,11.97-13.21,4.33-29.44-4.13-34.48Zm-6.54-2.34c-.45,5.48-29.16-19.07-24.21-19.89,13.47-2.2,24.65,5.62,24.21,19.89Zm-12.68,27.28c-7.23,4.63-17.63,1.64-23.24-6.68-5.6-8.32-4.3-18.81,2.92-23.44,7.23-4.63,17.63-1.64,23.24,6.68,5.6,8.32,4.3,18.81-2.92,23.44Zm-20.02-84.46c.23,1.23.53,1.99.85,2.23,1.59-1.7,2.89-3.43,4.96-5.07,0,.97-.51,1.99.73,2.75,1.09-1.46,2.6-2.78,4.57-3.9-.94,1.64-.17,2.14.36,2.81,1.5-1.29,2.95-2.58,5.72-3.6-.77.91-1.83,1.82-.71,2.87,1.56-.97,3.12-1.93,6.81-2.61-.83.91-2.57,1.85-1.5,2.75,1.94-.73,4.12-1.29,6.51-1.58-1.15.94-2.09,1.85-1.15,2.58,2.1-.64,4.98-1.49,7.79-.76l-1.77,1.79c-.21.23,4.15.18,7.04.23-1.06,1.46-2.12,2.84-2.74,5.33.3.29,1.71.12,3.07,0-1.39,2.9-3.78,3.6-4.34,4.86.86.64,2.01.47,3.31.03-1.01,2.02-3.07,3.43-4.72,5.07.41.29,1.15.47,2.86.26-1.53,1.61-3.36,3.08-5.54,4.39.38.44,1.71.44,2.94.47-1.97,1.9-4.51,2.9-6.9,4.16,1.18.79,2.04.62,2.95.62-1.68,1.38-4.54,2.08-7.19,2.93.5.79,1,1,2.09,1.2-2.8,1.55-6.84.85-7.96,1.64.27.79,1.06,1.29,1.98,1.7-4.54.26-16.9-.18-19.29-9.46,4.63-5.07,13.1-10.99,27.63-18.34-11.32,3.75-21.52,8.79-30.07,15.67-10.12-4.66-3.19-16.38,1.71-21.04Zm-10.15,33.57c7.14-.09,15.96,5.21,15.93,10.17-.03,4.39-6.2,7.94-15.87,7.88-9.46-.12-15.83-4.45-15.8-8.73,0-3.49,7.73-9.52,15.74-9.32Zm-36.26-3.75c1.09-.21,1.59-.44,2.09-1.2-2.65-.82-5.51-1.55-7.19-2.93.91,0,1.77.2,2.95-.62-2.39-1.26-4.93-2.26-6.9-4.16,1.24-.03,2.56,0,2.95-.47-2.19-1.32-4.01-2.78-5.55-4.39,1.71.21,2.45.03,2.86-.26-1.65-1.64-3.74-3.05-4.71-5.07,1.26.44,2.44.59,3.3-.03-.56-1.23-2.95-1.96-4.34-4.86,1.36.12,2.78.29,3.07,0-.62-2.49-1.71-3.9-2.74-5.33,2.89-.03,7.25,0,7.04-.23l-1.76-1.79c2.8-.73,5.69.12,7.78.76.94-.73-.03-1.64-1.15-2.58,2.39.32,4.54.85,6.52,1.58,1.03-.91-.68-1.85-1.51-2.75,3.69.67,5.25,1.64,6.81,2.61,1.12-1.05.06-1.96-.7-2.87,2.77,1,4.21,2.31,5.72,3.6.5-.67,1.29-1.17.35-2.81,1.97,1.11,3.48,2.43,4.57,3.9,1.21-.76.74-1.82.74-2.75,2.06,1.64,3.36,3.37,4.95,5.07.32-.23.59-1,.85-2.23,4.9,4.66,11.83,16.38,1.77,21.04-8.55-6.88-18.75-11.92-30.07-15.67,14.54,7.32,23,13.27,27.63,18.34-2.36,9.32-14.75,9.73-19.29,9.46.92-.41,1.71-.94,1.98-1.7-1.18-.82-5.19-.12-8.02-1.64Zm17.72,7.06c4.95.82-23.76,25.34-24.21,19.89-.44-14.27,10.76-22.12,24.21-19.89Zm-30.49,54.73c-6.98-5.51-9.23-21.59,3.72-28.8,7.81-2.05,2.65,31.58-3.72,28.8Zm26.83,28.77c-3.92,2.31-13.5,1.38-20.28-8.17-4.57-8.03-3.98-16.17-.77-18.57,4.81-2.87,12.24,1,17.96,7.5,4.98,5.86,7.25,16.2,3.09,19.25Zm-7.78-35.07c-7.22-4.63-8.52-15.12-2.92-23.44,5.6-8.32,16.01-11.31,23.23-6.68,7.23,4.63,8.52,15.12,2.92,23.44-5.63,8.32-16.04,11.31-23.23,6.68Zm30.13,51.42c-8.67.35-17.16-6.94-17.04-9.46-.12-3.72,10.56-6.62,17.48-6.45,6.99-.29,16.4,2.2,16.43,5.54.14,3.22-8.49,10.52-16.87,10.37Zm17.37-36.59c.06,8.7-7.73,15.76-17.34,15.82s-17.45-6.97-17.51-15.65v-.18c-.06-8.7,7.72-15.76,17.33-15.82,9.62-.06,17.46,6.97,17.52,15.64v.18Zm24.23,12.51c-7.46,10.14-17.57,10.52-21.31,7.71-3.92-3.63-.95-14.91,4.45-21.09,6.16-6.83,12.77-11.28,17.37-7.79,3.09,3.02,4.92,14.39-.51,21.18Zm6.76-21.44c-6.34,2.75-11.5-30.85-3.72-28.8,12.94,7.24,10.7,23.32,3.72,28.8Z"/>
  </g>
  <path class="cls-1" d="m1368,562.8h-125c-4.97,0-9.74,1.97-13.26,5.49-3.51,3.52-5.49,8.28-5.49,13.26v87.5c0,4.97,1.98,9.74,5.49,13.26,3.52,3.52,8.29,5.49,13.26,5.49h125c4.97,0,9.74-1.97,13.26-5.49,3.51-3.52,5.49-8.28,5.49-13.26v-87.5c0-4.97-1.98-9.74-5.49-13.26-3.52-3.52-8.29-5.49-13.26-5.49Zm6.25,106.25c0,1.66-.66,3.25-1.83,4.42-1.17,1.17-2.76,1.83-4.42,1.83h-125c-1.66,0-3.25-.66-4.42-1.83-1.17-1.17-1.83-2.76-1.83-4.42v-87.5c0-1.66.66-3.25,1.83-4.42,1.17-1.17,2.76-1.83,4.42-1.83h125c1.66,0,3.25.66,4.42,1.83,1.17,1.17,1.83,2.76,1.83,4.42v87.5Zm-37.5,37.5c0,1.66-.66,3.25-1.83,4.42-1.17,1.17-2.76,1.83-4.42,1.83h-50c-1.66,0-3.25-.66-4.42-1.83-1.17-1.17-1.83-2.76-1.83-4.42s.66-3.25,1.83-4.42c1.17-1.17,2.76-1.83,4.42-1.83h50c1.66,0,3.25.66,4.42,1.83,1.17,1.17,1.83,2.76,1.83,4.42Z"/>
  <path class="cls-1" d="m87.5,726.55c-9.17,0-17.01-3.26-23.54-9.79-6.53-6.53-9.79-14.38-9.79-23.54s3.26-17.01,9.79-23.54,14.38-9.79,23.54-9.79,17.01,3.26,23.54,9.79c6.53,6.53,9.79,14.38,9.79,23.54s-3.26,17.01-9.79,23.54c-6.53,6.53-14.38,9.79-23.54,9.79Zm-66.67,66.67v-23.33c0-4.72,1.22-9.06,3.65-13.03s5.66-6.98,9.68-9.06c8.61-4.31,17.36-7.54,26.25-9.69,8.89-2.15,17.92-3.23,27.08-3.22,9.17,0,18.19,1.08,27.08,3.23,8.89,2.15,17.64,5.38,26.25,9.68,4.03,2.08,7.26,5.11,9.69,9.07s3.65,8.3,3.64,13.02v23.33H20.83Z"/>
  <path class="cls-5" d="m80.5,485.55c0,3.87,3.13,7,7,7s7-3.13,7-7h-14Zm11.95-124.95c-2.73-2.73-7.17-2.73-9.9,0l-44.55,44.55c-2.73,2.73-2.73,7.17,0,9.9,2.73,2.73,7.17,2.73,9.9,0l39.6-39.6,39.6,39.6c2.73,2.73,7.17,2.73,9.9,0,2.73-2.73,2.73-7.17,0-9.9l-44.55-44.55Zm2.05,124.95v-114h-14v114h14Z"/>
  <path class="cls-5" d="m390.5,90.55c-3.87,0-7,3.13-7,7s3.13,7,7,7v-14Zm181.95,11.95c2.73-2.73,2.73-7.17,0-9.9l-44.55-44.55c-2.73-2.73-7.17-2.73-9.9,0-2.73,2.73-2.73,7.17,0,9.9l39.6,39.6-39.6,39.6c-2.73,2.73-2.73,7.17,0,9.9,2.73,2.73,7.17,2.73,9.9,0l44.55-44.55Zm-181.95,2.05h177v-14h-177v14Z"/>
  <path class="cls-5" d="m1312.5,404.55c0-3.87-3.13-7-7-7s-7,3.13-7,7h14Zm-11.95,142.95c2.73,2.73,7.17,2.73,9.9,0l44.55-44.55c2.73-2.73,2.73-7.17,0-9.9-2.74-2.73-7.17-2.73-9.9,0l-39.6,39.6-39.6-39.6c-2.73-2.73-7.16-2.73-9.9,0-2.73,2.73-2.73,7.17,0,9.9l44.55,44.55Zm-2.05-142.95v138h14v-138h-14Z"/>
  <path class="cls-5" d="m1120.5,44.55c-3.87,0-7,3.13-7,7s3.13,7,7,7v-14Zm108.95,11.95c2.73-2.73,2.73-7.17,0-9.9l-44.55-44.55c-2.73-2.73-7.16-2.73-9.9,0-2.73,2.73-2.73,7.17,0,9.9l39.6,39.6-39.6,39.6c-2.73,2.73-2.73,7.17,0,9.9,2.74,2.73,7.17,2.73,9.9,0l44.55-44.55Zm-108.95,2.05h104v-14h-104v14Z"/>
  <path class="cls-5" d="m953.44,146.54c3.87.03,7.03-3.08,7.06-6.94.03-3.87-3.08-7.03-6.94-7.06l-.11,14Zm-127.85-12.98c-2.76,2.71-2.79,7.14-.08,9.9l44.19,44.9c2.71,2.76,7.14,2.79,9.9.08,2.76-2.71,2.79-7.14.08-9.9l-39.28-39.92,39.92-39.28c2.76-2.71,2.79-7.14.08-9.9-2.71-2.76-7.14-2.79-9.9-.08l-44.91,44.19Zm127.97-1.02l-123-.99-.11,14,123,.99.11-14Z"/>
  <path class="cls-3" d="m87.5,97.55v42"/>
  <path class="cls-3" d="m232.5,97.55H87.5"/>
  <path class="cls-3" d="m87.5,557.55v80"/>
  <path class="cls-1" d="m28.94,800.73h1.99v14.45c0,1.48-.35,2.81-1.04,3.98-.7,1.16-1.67,2.09-2.91,2.76-1.24.67-2.67,1-4.31,1s-3.07-.34-4.31-1.01c-1.24-.68-2.21-1.6-2.91-2.76-.7-1.16-1.04-2.49-1.04-3.97v-14.45h1.99v14.31c0,1.16.26,2.19.78,3.1.52.9,1.25,1.61,2.18,2.13.94.52,2.05.78,3.31.78s2.37-.26,3.31-.78c.94-.52,1.67-1.23,2.18-2.13.52-.91.78-1.94.78-3.1v-14.31Zm13.83,5.45v1.65h-7.81v-1.65h7.81Zm-5.37-3.92h1.91v16.01c0,.68.12,1.22.35,1.61.23.38.54.66.92.82.38.16.78.23,1.2.23.25,0,.46-.01.64-.04.18-.04.33-.07.47-.11l.4,1.71c-.18.07-.41.14-.68.19-.27.06-.6.1-1,.1-.7,0-1.37-.15-2.01-.46-.64-.3-1.16-.76-1.58-1.36-.41-.6-.62-1.35-.62-2.25v-16.46Zm9.7,20.28v-16.36h1.91v16.36h-1.91Zm.97-19.18c-.39,0-.72-.13-1-.39-.28-.27-.42-.59-.42-.97s.14-.7.42-.96c.28-.27.61-.4,1-.4s.72.14,1,.4c.28.26.42.58.42.96s-.14.7-.42.97c-.28.26-.61.39-1,.39Zm7.85-2.64v21.82h-1.9v-21.82h1.9Zm5.04,21.82v-16.36h1.91v16.36h-1.91Zm.97-19.18c-.39,0-.72-.13-1-.39-.28-.27-.42-.59-.42-.97s.14-.7.42-.96c.28-.27.61-.4,1-.4s.72.14,1,.4c.28.26.42.58.42.96s-.14.7-.42.97c-.28.26-.61.39-1,.39Zm16.95,6.4l-1.74.49c-.17-.49-.41-.93-.72-1.33s-.72-.71-1.23-.95c-.5-.23-1.11-.35-1.85-.35-1.11,0-2.02.26-2.73.79-.71.52-1.07,1.2-1.07,2.03,0,.7.24,1.27.72,1.72.49.43,1.24.78,2.26,1.03l2.47.61c1.37.33,2.4.86,3.08,1.59.69.72,1.03,1.63,1.03,2.73,0,.92-.26,1.74-.77,2.46-.51.72-1.23,1.28-2.14,1.69-.91.4-1.96.61-3.16.61-1.6,0-2.92-.36-3.95-1.08-1.04-.73-1.7-1.77-1.99-3.13l1.82-.45c.23.97.69,1.71,1.37,2.21.69.5,1.59.74,2.72.74,1.26,0,2.26-.28,3.01-.84.75-.57,1.13-1.28,1.13-2.13,0-.66-.22-1.21-.66-1.66-.44-.45-1.11-.79-2-1l-2.67-.64c-1.42-.34-2.47-.88-3.15-1.62-.68-.74-1.02-1.66-1.02-2.75,0-.9.25-1.69.74-2.38.49-.69,1.16-1.23,2.02-1.62.86-.39,1.84-.59,2.94-.59,1.5,0,2.7.34,3.59,1.02.9.67,1.55,1.6,1.95,2.79Zm8.96,13.15c-.99,0-1.89-.19-2.71-.58-.82-.39-1.47-.95-1.95-1.68-.48-.74-.72-1.63-.72-2.68,0-.81.15-1.49.46-2.05.31-.55.74-1.01,1.3-1.36.56-.36,1.23-.64,1.99-.84.77-.21,1.61-.37,2.54-.48.92-.11,1.69-.21,2.32-.3.64-.09,1.12-.22,1.46-.41.33-.18.5-.48.5-.89v-.38c0-1.11-.33-1.99-1-2.63-.66-.65-1.61-.97-2.85-.97-1.18,0-2.14.26-2.89.78-.74.52-1.26,1.13-1.56,1.83l-1.8-.65c.37-.89.88-1.61,1.53-2.14.65-.54,1.39-.93,2.19-1.16.81-.24,1.63-.36,2.46-.36.62,0,1.28.08,1.95.24.68.16,1.31.45,1.9.85.58.4,1.06.96,1.42,1.67.36.71.54,1.61.54,2.71v11.11h-1.9v-2.59h-.12c-.23.48-.57.95-1.01,1.41-.45.45-1.01.83-1.68,1.12-.67.29-1.47.44-2.38.44Zm.25-1.74c1.01,0,1.88-.22,2.62-.67.74-.45,1.31-1.04,1.71-1.78.4-.75.61-1.57.61-2.46v-2.36c-.14.14-.38.26-.71.36-.33.11-.71.2-1.14.29-.43.08-.85.15-1.28.2-.43.06-.81.11-1.15.15-.92.11-1.71.29-2.36.53-.65.24-1.15.58-1.5,1-.35.42-.52.96-.52,1.62,0,.99.36,1.77,1.07,2.31.71.54,1.6.81,2.67.81Zm18.32-15v1.65h-7.81v-1.65h7.81Zm-5.37-3.92h1.91v16.01c0,.68.12,1.22.35,1.61.23.38.54.66.92.82.38.16.78.23,1.2.23.25,0,.46-.01.64-.04.18-.04.33-.07.47-.11l.4,1.71c-.19.07-.41.14-.68.19-.27.06-.6.1-1,.1-.7,0-1.37-.15-2.01-.46-.64-.3-1.17-.76-1.58-1.36-.41-.6-.62-1.35-.62-2.25v-16.46Zm16.12,20.62c-1.53,0-2.85-.35-3.96-1.07-1.12-.72-1.98-1.71-2.59-2.97-.6-1.27-.91-2.73-.91-4.39s.3-3.11.91-4.39c.61-1.29,1.45-2.29,2.53-3.02,1.08-.73,2.33-1.1,3.74-1.1.89,0,1.74.16,2.57.49.82.32,1.56.81,2.22,1.48.66.66,1.18,1.5,1.57,2.5.38,1,.58,2.19.58,3.56v.94h-12.78v-1.67h10.85c0-1.05-.21-2-.64-2.83-.42-.84-1.01-1.51-1.76-2-.75-.49-1.61-.74-2.59-.74-1.04,0-1.95.28-2.74.83s-1.41,1.29-1.85,2.2c-.44.91-.66,1.9-.67,2.98v1c0,1.3.22,2.44.67,3.41.45.97,1.1,1.72,1.93,2.25.83.53,1.81.8,2.95.8.77,0,1.45-.12,2.03-.36.59-.24,1.08-.56,1.48-.97.4-.41.71-.86.92-1.35l1.8.59c-.25.69-.66,1.32-1.22,1.91-.56.58-1.26,1.05-2.11,1.41-.84.35-1.8.52-2.9.52Zm21.21-6.6v-10.11h1.9v16.36h-1.9v-2.72h-.15c-.38.84-.99,1.54-1.82,2.1-.83.55-1.85.83-3.05.83-1.04,0-1.97-.23-2.78-.68-.81-.46-1.44-1.14-1.91-2.02-.46-.89-.69-1.98-.69-3.27v-10.6h1.9v10.48c0,1.28.38,2.31,1.13,3.09.75.77,1.72,1.16,2.9,1.16.74,0,1.45-.18,2.13-.53.68-.35,1.24-.87,1.68-1.55.44-.69.66-1.53.66-2.54Zm6.92,6.25v-16.36h1.84v2.52h.14c.33-.82.89-1.49,1.7-1.99.82-.51,1.74-.77,2.77-.77.16,0,.33,0,.52.01.19,0,.35.01.48.02v1.93c-.09-.02-.23-.04-.45-.06-.21-.03-.44-.04-.69-.04-.85,0-1.61.18-2.28.54-.66.35-1.18.85-1.57,1.48-.38.63-.57,1.35-.57,2.16v10.57h-1.9Z"/>
  <path class="cls-1" d="m36.24,321.18c-.12-1.21-.66-2.18-1.61-2.9-.95-.72-2.15-1.08-3.59-1.08-1.02,0-1.91.17-2.68.52-.77.35-1.37.83-1.81,1.45-.43.61-.65,1.31-.65,2.09,0,.58.12,1.08.37,1.51.25.43.58.81,1,1.12.43.3.89.57,1.41.79.52.22,1.04.4,1.57.55l2.3.66c.7.19,1.39.44,2.09.74.7.3,1.33.67,1.91,1.13.58.45,1.05,1,1.4,1.65.36.65.53,1.42.53,2.33,0,1.16-.3,2.21-.91,3.14-.6.93-1.47,1.67-2.6,2.22-1.13.54-2.48.81-4.06.81-1.48,0-2.77-.24-3.87-.73-1.09-.5-1.95-1.18-2.58-2.06-.62-.87-.98-1.89-1.05-3.04h2.05c.07.86.36,1.59.85,2.18.5.6,1.14,1.05,1.94,1.36.8.31,1.68.46,2.66.46,1.09,0,2.05-.18,2.9-.54.85-.37,1.52-.88,2-1.53.49-.66.74-1.43.74-2.3,0-.74-.19-1.36-.58-1.85-.38-.5-.92-.93-1.61-1.27-.68-.34-1.47-.64-2.38-.9l-2.61-.77c-1.71-.51-3.04-1.22-3.98-2.12s-1.42-2.05-1.42-3.45c0-1.17.31-2.2.94-3.09.63-.9,1.48-1.59,2.56-2.09,1.08-.5,2.29-.76,3.63-.76s2.56.25,3.6.75c1.04.5,1.87,1.18,2.48,2.06.62.87.95,1.85.99,2.96h-1.93Zm6.65,16.36v-16.36h1.91v16.36h-1.91Zm.97-19.18c-.39,0-.72-.13-1-.39-.28-.27-.42-.59-.42-.97s.14-.7.42-.96c.28-.27.61-.4,1-.4s.72.14,1,.4c.28.26.42.58.42.96s-.14.7-.42.97c-.28.26-.61.39-1,.39Zm12.4,2.81v1.65h-7.81v-1.65h7.81Zm-5.37-3.92h1.91v16.01c0,.68.12,1.22.35,1.61.23.38.54.66.92.82.38.16.78.23,1.2.23.25,0,.46-.01.64-.04.18-.04.33-.07.47-.11l.4,1.71c-.18.07-.41.14-.68.19-.27.06-.6.1-1,.1-.7,0-1.37-.15-2.01-.46-.64-.3-1.16-.76-1.58-1.36-.41-.6-.62-1.35-.62-2.25v-16.46Zm16.12,20.62c-1.53,0-2.85-.36-3.96-1.07-1.12-.72-1.98-1.71-2.59-2.97-.6-1.27-.91-2.73-.91-4.39s.3-3.11.91-4.39c.61-1.29,1.45-2.29,2.52-3.01,1.08-.73,2.33-1.1,3.74-1.1.89,0,1.74.16,2.57.49.82.32,1.56.81,2.22,1.48.66.66,1.18,1.49,1.57,2.5.38,1,.58,2.19.58,3.56v.94h-12.78v-1.67h10.85c0-1.05-.21-2-.64-2.83-.42-.85-1.01-1.51-1.76-2-.75-.49-1.61-.74-2.59-.74-1.04,0-1.95.28-2.74.83-.79.55-1.41,1.29-1.85,2.2-.44.91-.66,1.9-.67,2.98v1c0,1.3.22,2.44.67,3.41.45.96,1.1,1.71,1.93,2.25.83.53,1.81.8,2.95.8.77,0,1.45-.12,2.03-.36.59-.24,1.08-.56,1.48-.97.4-.41.71-.86.92-1.35l1.8.59c-.25.69-.66,1.32-1.23,1.91-.56.58-1.26,1.05-2.11,1.41-.84.35-1.8.52-2.9.52Zm22.89-.34l-4.94-16.36h2l3.88,13.5h.14l3.87-13.5h2.01l3.83,13.47h.15l3.88-13.47h2l-4.94,16.36h-1.96l-3.88-13.41h-.2l-3.88,13.41h-1.96Zm26.57.34c-1.53,0-2.85-.36-3.96-1.07-1.12-.72-1.98-1.71-2.59-2.97-.6-1.27-.9-2.73-.9-4.39s.3-3.11.9-4.39c.61-1.29,1.45-2.29,2.53-3.01,1.08-.73,2.33-1.1,3.74-1.1.89,0,1.74.16,2.57.49.82.32,1.56.81,2.22,1.48.66.66,1.18,1.49,1.57,2.5.38,1,.57,2.19.57,3.56v.94h-12.78v-1.67h10.85c0-1.05-.21-2-.64-2.83-.42-.85-1.01-1.51-1.76-2-.74-.49-1.61-.74-2.59-.74-1.04,0-1.95.28-2.74.83-.79.55-1.41,1.29-1.85,2.2-.44.91-.66,1.9-.67,2.98v1c0,1.3.22,2.44.67,3.41.45.96,1.1,1.71,1.93,2.25.83.53,1.81.8,2.95.8.77,0,1.45-.12,2.04-.36.59-.24,1.08-.56,1.48-.97.4-.41.71-.86.92-1.35l1.8.59c-.25.69-.66,1.32-1.22,1.91-.56.58-1.26,1.05-2.11,1.41-.84.35-1.8.52-2.9.52Zm11.21-.34v-21.82h1.91v8.58h.17c.21-.49.52-.99.92-1.51.4-.52.93-.95,1.59-1.3.66-.36,1.49-.53,2.49-.53,1.34,0,2.52.36,3.54,1.07,1.02.7,1.81,1.69,2.38,2.96.57,1.26.85,2.74.85,4.42s-.28,3.17-.85,4.44c-.56,1.27-1.35,2.26-2.37,2.97-1.01.71-2.18,1.07-3.52,1.07-.99,0-1.82-.18-2.49-.53-.66-.36-1.19-.79-1.6-1.31-.4-.53-.72-1.04-.94-1.53h-.24v3.04h-1.84Zm1.88-8.17c0,1.32.2,2.49.59,3.51.4,1.02.97,1.82,1.71,2.4.74.58,1.65.86,2.71.86s2.01-.3,2.76-.89c.75-.6,1.32-1.42,1.71-2.44.39-1.02.59-2.17.59-3.44s-.19-2.39-.59-3.4c-.38-1.01-.95-1.81-1.7-2.4-.75-.6-1.68-.89-2.77-.89s-1.97.29-2.72.86c-.74.57-1.3,1.36-1.69,2.36-.39,1-.59,2.16-.59,3.46Z"/>
  <path class="cls-1" d="m625.24,192.18c-.12-1.21-.66-2.18-1.61-2.9-.95-.72-2.15-1.08-3.59-1.08-1.01,0-1.91.17-2.68.52-.77.35-1.37.83-1.81,1.45-.43.61-.65,1.31-.65,2.09,0,.57.12,1.08.37,1.51.25.43.58.81,1,1.12.43.31.9.57,1.41.79.52.22,1.04.4,1.57.55l2.3.66c.7.19,1.39.44,2.09.74s1.33.68,1.91,1.13c.58.45,1.05,1,1.39,1.65.36.65.53,1.42.53,2.33,0,1.16-.3,2.21-.91,3.14-.6.93-1.47,1.67-2.6,2.22-1.13.54-2.48.81-4.06.81-1.48,0-2.77-.24-3.87-.74-1.09-.5-1.95-1.18-2.58-2.06-.62-.87-.98-1.89-1.05-3.04h2.05c.07.86.36,1.59.85,2.18.5.6,1.14,1.05,1.94,1.36.79.3,1.68.46,2.66.46,1.09,0,2.05-.18,2.9-.54.85-.37,1.52-.88,2-1.53.49-.66.74-1.43.74-2.3,0-.74-.19-1.36-.58-1.85-.38-.5-.92-.93-1.61-1.27-.68-.34-1.47-.64-2.38-.9l-2.61-.77c-1.71-.51-3.04-1.22-3.98-2.12-.94-.9-1.42-2.05-1.42-3.45,0-1.17.31-2.2.94-3.09.63-.89,1.48-1.59,2.56-2.09,1.08-.5,2.29-.76,3.63-.76s2.56.25,3.6.75c1.04.5,1.87,1.18,2.48,2.06.62.87.95,1.85.99,2.96h-1.93Zm13.24,16.71c-1.53,0-2.85-.36-3.96-1.07-1.11-.72-1.98-1.71-2.59-2.97-.6-1.27-.91-2.73-.91-4.39s.3-3.11.91-4.39c.61-1.29,1.45-2.29,2.53-3.01,1.08-.73,2.33-1.1,3.74-1.1.89,0,1.74.16,2.57.49.82.32,1.56.81,2.22,1.48.66.66,1.18,1.49,1.57,2.5.38,1,.58,2.19.58,3.56v.94h-12.79v-1.67h10.85c0-1.05-.21-2-.64-2.83-.42-.85-1.01-1.51-1.76-2-.75-.49-1.61-.74-2.59-.74-1.04,0-1.95.28-2.74.83s-1.41,1.29-1.85,2.2c-.44.91-.66,1.9-.67,2.98v1c0,1.3.22,2.44.67,3.41.46.96,1.1,1.71,1.93,2.25.83.53,1.81.8,2.95.8.77,0,1.45-.12,2.03-.36.59-.24,1.08-.56,1.48-.97.4-.41.71-.86.92-1.35l1.8.59c-.25.69-.66,1.32-1.22,1.91-.56.58-1.27,1.05-2.11,1.41-.84.35-1.8.52-2.9.52Zm10.82-.34v-16.36h1.84v2.51h.14c.33-.82.9-1.49,1.7-1.99.82-.51,1.74-.77,2.77-.77.16,0,.33,0,.52.01.19,0,.35.01.48.02v1.93c-.09-.01-.23-.04-.45-.06-.21-.03-.44-.04-.69-.04-.85,0-1.61.18-2.28.54-.66.36-1.18.85-1.57,1.48-.38.63-.58,1.35-.58,2.16v10.57h-1.9Zm23.86-16.36l-5.98,16.36h-2.02l-5.98-16.36h2.06l4.86,13.86h.15l4.86-13.86h2.06Zm9.74,16.71c-1.53,0-2.85-.36-3.96-1.07-1.12-.72-1.98-1.71-2.59-2.97-.6-1.27-.91-2.73-.91-4.39s.3-3.11.91-4.39c.61-1.29,1.45-2.29,2.53-3.01,1.08-.73,2.33-1.1,3.74-1.1.89,0,1.74.16,2.57.49.82.32,1.56.81,2.22,1.48.66.66,1.18,1.49,1.57,2.5.38,1,.58,2.19.58,3.56v.94h-12.78v-1.67h10.84c0-1.05-.21-2-.64-2.83-.42-.85-1.01-1.51-1.76-2-.75-.49-1.61-.74-2.59-.74-1.04,0-1.95.28-2.74.83s-1.41,1.29-1.85,2.2c-.44.91-.66,1.9-.67,2.98v1c0,1.3.22,2.44.67,3.41.46.96,1.1,1.71,1.93,2.25.83.53,1.81.8,2.95.8.77,0,1.45-.12,2.03-.36.59-.24,1.08-.56,1.48-.97.4-.41.71-.86.92-1.35l1.8.59c-.25.69-.66,1.32-1.22,1.91-.56.58-1.27,1.05-2.11,1.41-.84.35-1.8.52-2.9.52Zm21.21-6.6v-10.11h1.9v16.36h-1.9v-2.72h-.15c-.38.84-.99,1.54-1.82,2.1-.83.55-1.85.83-3.05.83-1.04,0-1.97-.23-2.78-.68-.81-.46-1.45-1.14-1.91-2.02s-.69-1.98-.69-3.27v-10.6h1.9v10.48c0,1.28.38,2.31,1.13,3.09.75.77,1.72,1.16,2.9,1.16.74,0,1.45-.18,2.13-.53.68-.36,1.24-.87,1.68-1.56.44-.69.66-1.53.66-2.54Zm6.92,6.25v-16.36h1.84v2.51h.14c.33-.82.89-1.49,1.7-1.99.82-.51,1.74-.77,2.77-.77.16,0,.33,0,.52.01.19,0,.35.01.48.02v1.93c-.08-.01-.23-.04-.45-.06-.21-.03-.44-.04-.69-.04-.85,0-1.61.18-2.28.54-.66.36-1.18.85-1.57,1.48-.38.63-.58,1.35-.58,2.16v10.57h-1.9Zm22.76,0l-4.94-16.36h2l3.88,13.5h.14l3.87-13.5h2.01l3.84,13.47h.15l3.88-13.47h2l-4.94,16.36h-1.96l-3.88-13.41h-.2l-3.88,13.41h-1.96Zm26.57.34c-1.53,0-2.85-.36-3.96-1.07-1.11-.72-1.98-1.71-2.59-2.97-.6-1.27-.91-2.73-.91-4.39s.3-3.11.91-4.39c.61-1.29,1.45-2.29,2.53-3.01,1.08-.73,2.33-1.1,3.74-1.1.89,0,1.74.16,2.57.49.82.32,1.56.81,2.22,1.48.66.66,1.18,1.49,1.57,2.5.38,1,.58,2.19.58,3.56v.94h-12.79v-1.67h10.85c0-1.05-.21-2-.64-2.83-.42-.85-1.01-1.51-1.76-2-.75-.49-1.61-.74-2.59-.74-1.04,0-1.95.28-2.74.83s-1.41,1.29-1.85,2.2c-.44.91-.66,1.9-.67,2.98v1c0,1.3.22,2.44.67,3.41.46.96,1.1,1.71,1.93,2.25.83.53,1.81.8,2.95.8.77,0,1.45-.12,2.03-.36.59-.24,1.08-.56,1.48-.97.4-.41.71-.86.92-1.35l1.8.59c-.25.69-.66,1.32-1.22,1.91-.56.58-1.27,1.05-2.11,1.41-.84.35-1.8.52-2.9.52Zm11.21-.34v-21.82h1.91v8.58h.17c.21-.49.52-.99.92-1.51.4-.52.93-.95,1.59-1.3.66-.36,1.49-.53,2.49-.53,1.34,0,2.52.36,3.54,1.07,1.02.7,1.81,1.69,2.38,2.96.57,1.26.85,2.74.85,4.42s-.28,3.17-.85,4.44c-.56,1.27-1.35,2.26-2.36,2.97-1.01.71-2.18,1.07-3.52,1.07-.99,0-1.83-.18-2.49-.53-.66-.35-1.19-.79-1.6-1.31-.4-.53-.72-1.04-.94-1.53h-.23v3.04h-1.84Zm1.88-8.17c0,1.32.2,2.49.58,3.51.4,1.02.97,1.82,1.71,2.4.75.58,1.65.86,2.71.86s2.01-.3,2.76-.89c.75-.6,1.32-1.42,1.71-2.44.39-1.02.59-2.17.59-3.44s-.2-2.39-.59-3.4c-.38-1.01-.95-1.81-1.7-2.4-.75-.6-1.68-.9-2.77-.9s-1.97.29-2.72.86c-.74.57-1.3,1.36-1.69,2.36-.39,1-.58,2.16-.58,3.46Z"/>
  <path class="cls-1" d="m1210.4,201.55v-21.82h7.04c1.55,0,2.84.28,3.88.84,1.04.55,1.83,1.33,2.35,2.31.53.98.8,2.11.8,3.38s-.27,2.39-.8,3.37c-.52.97-1.3,1.73-2.34,2.28-1.04.55-2.32.82-3.86.82h-6v-1.82h5.95c1.13,0,2.08-.19,2.83-.56.76-.38,1.33-.91,1.7-1.61s.56-1.52.56-2.47-.19-1.78-.56-2.49c-.38-.72-.95-1.27-1.71-1.66-.75-.39-1.7-.59-2.85-.59h-5v20.03h-1.99Zm9.62-9.84l5.37,9.84h-2.3l-5.32-9.84h2.25Zm13.48,10.22c-.99,0-1.89-.19-2.71-.57-.81-.39-1.46-.95-1.95-1.68-.48-.74-.72-1.63-.72-2.68,0-.81.15-1.49.46-2.05.3-.55.74-1.01,1.3-1.36.56-.36,1.22-.64,1.99-.84s1.61-.37,2.54-.48c.91-.11,1.69-.21,2.32-.3.64-.09,1.12-.22,1.46-.4.33-.18.5-.48.5-.89v-.38c0-1.12-.34-1.99-1-2.63-.66-.65-1.62-.97-2.86-.97s-2.14.26-2.89.78c-.73.52-1.25,1.13-1.55,1.83l-1.8-.65c.37-.89.88-1.61,1.53-2.14.66-.54,1.39-.93,2.2-1.16.81-.24,1.63-.36,2.46-.36.62,0,1.27.08,1.95.25.68.16,1.31.45,1.89.85.59.4,1.06.96,1.42,1.67.36.71.54,1.61.54,2.71v11.11h-1.89v-2.59h-.12c-.23.48-.56.95-1.01,1.41-.45.46-1.01.83-1.68,1.12-.68.29-1.47.44-2.38.44Zm.26-1.74c1,0,1.88-.22,2.62-.67.73-.45,1.3-1.04,1.7-1.78.41-.75.61-1.57.61-2.46v-2.37c-.14.13-.38.26-.72.36-.32.11-.7.2-1.14.29-.42.08-.85.15-1.27.2-.43.06-.81.11-1.15.15-.93.11-1.72.29-2.37.53-.65.24-1.15.57-1.5,1-.35.42-.52.96-.52,1.62,0,.99.35,1.76,1.06,2.31.71.54,1.6.81,2.68.81Zm22.86-11.41l-1.73.49c-.17-.49-.42-.93-.73-1.33-.31-.4-.72-.71-1.22-.95-.5-.24-1.12-.35-1.86-.35-1.1,0-2.01.26-2.72.79-.71.53-1.07,1.2-1.07,2.03,0,.7.24,1.27.72,1.72.49.43,1.25.78,2.26,1.03l2.48.61c1.37.33,2.39.86,3.07,1.59.69.72,1.04,1.63,1.04,2.73,0,.92-.26,1.74-.77,2.46-.51.72-1.22,1.28-2.14,1.69-.91.4-1.96.61-3.17.61-1.59,0-2.91-.36-3.95-1.08-1.03-.73-1.7-1.77-1.99-3.13l1.82-.45c.24.97.69,1.71,1.38,2.21.69.5,1.59.74,2.71.74,1.26,0,2.26-.28,3.02-.84.75-.57,1.13-1.28,1.13-2.13,0-.66-.22-1.21-.66-1.66-.44-.45-1.11-.79-2.01-1l-2.67-.64c-1.42-.34-2.47-.88-3.15-1.62-.69-.74-1.03-1.65-1.03-2.75,0-.9.25-1.69.74-2.38.49-.69,1.16-1.23,2.02-1.62.86-.39,1.84-.59,2.94-.59,1.5,0,2.7.34,3.59,1.02.91.68,1.56,1.6,1.95,2.79Zm4.39,18.91v-22.5h1.84v3.12h.23c.22-.49.54-.99.93-1.5.4-.52.93-.96,1.58-1.31.66-.36,1.49-.53,2.49-.53,1.35,0,2.53.36,3.54,1.07,1.02.7,1.8,1.69,2.37,2.96.56,1.26.85,2.74.85,4.42s-.29,3.17-.85,4.44c-.57,1.27-1.35,2.26-2.37,2.97-1.01.71-2.18,1.07-3.52,1.07-.98,0-1.81-.18-2.48-.53-.66-.35-1.19-.79-1.61-1.31-.4-.53-.71-1.04-.93-1.53h-.17v9.17h-1.9Zm1.87-14.31c0,1.32.2,2.49.59,3.51.4,1.02.97,1.82,1.7,2.4.75.58,1.65.86,2.71.86s2-.3,2.75-.89c.75-.6,1.32-1.42,1.71-2.44.4-1.02.6-2.17.6-3.44s-.19-2.39-.58-3.4c-.39-1.01-.96-1.81-1.71-2.4-.75-.6-1.68-.9-2.77-.9s-1.97.29-2.72.86c-.74.57-1.31,1.36-1.7,2.36-.38,1-.58,2.16-.58,3.46Zm16.51,8.17v-21.82h1.91v8.58h.17c.21-.49.52-.99.92-1.51.4-.52.93-.95,1.58-1.3.66-.36,1.49-.53,2.5-.53,1.34,0,2.52.36,3.53,1.07,1.02.7,1.81,1.69,2.38,2.96.57,1.26.85,2.74.85,4.42s-.28,3.17-.85,4.44c-.56,1.27-1.35,2.26-2.37,2.97-1.01.71-2.18,1.07-3.51,1.07-1,0-1.83-.18-2.5-.53-.66-.35-1.19-.79-1.59-1.31-.41-.53-.72-1.04-.94-1.53h-.24v3.04h-1.84Zm1.88-8.17c0,1.32.19,2.49.58,3.51.4,1.02.97,1.82,1.71,2.4.74.58,1.65.86,2.7.86s2.01-.3,2.76-.89c.76-.6,1.33-1.42,1.72-2.44.39-1.02.58-2.17.58-3.44s-.19-2.39-.58-3.4c-.39-1.01-.95-1.81-1.71-2.4-.75-.6-1.67-.9-2.77-.9s-1.97.29-2.71.86c-.74.57-1.31,1.36-1.7,2.36-.39,1-.58,2.16-.58,3.46Zm22.74,8.51c-1.53,0-2.85-.36-3.96-1.07-1.12-.72-1.98-1.71-2.59-2.97-.6-1.27-.91-2.73-.91-4.39s.31-3.11.91-4.39c.61-1.29,1.45-2.29,2.52-3.01,1.08-.73,2.33-1.1,3.74-1.1.89,0,1.75.16,2.57.49.83.32,1.56.81,2.22,1.48.66.66,1.18,1.49,1.56,2.5.39,1,.58,2.19.58,3.56v.94h-12.79v-1.67h10.85c0-1.05-.21-2-.64-2.83-.42-.85-1-1.51-1.76-2-.74-.49-1.61-.74-2.59-.74-1.03,0-1.95.28-2.73.83-.79.55-1.41,1.29-1.86,2.2-.44.91-.66,1.9-.67,2.98v1c0,1.3.23,2.44.67,3.41.46.96,1.1,1.71,1.93,2.25.83.53,1.82.8,2.95.8.78,0,1.45-.12,2.04-.36.59-.24,1.08-.56,1.48-.97.4-.41.71-.86.91-1.35l1.8.59c-.24.69-.65,1.32-1.22,1.91-.56.58-1.27,1.05-2.11,1.41-.84.35-1.8.52-2.9.52Zm10.82-.34v-16.36h1.84v2.51h.14c.33-.82.89-1.49,1.7-1.99.82-.51,1.74-.77,2.77-.77.16,0,.33,0,.53.01.19,0,.35.01.48.02v1.93c-.09-.01-.24-.04-.45-.06-.22-.03-.45-.04-.69-.04-.86,0-1.62.18-2.28.54-.67.36-1.19.85-1.57,1.48s-.58,1.35-.58,2.16v10.57h-1.89Zm10.69,0v-16.36h1.84v2.51h.14c.33-.82.9-1.49,1.71-1.99.81-.51,1.74-.77,2.77-.77.15,0,.33,0,.52.01.19,0,.35.01.48.02v1.93c-.09-.01-.24-.04-.45-.06-.21-.03-.44-.04-.69-.04-.85,0-1.61.18-2.28.54-.66.36-1.18.85-1.57,1.48-.38.63-.57,1.35-.57,2.16v10.57h-1.9Zm12.51,6.14c-.37,0-.72-.04-1.05-.11-.33-.07-.59-.15-.78-.24l.51-1.67c.65.2,1.22.27,1.73.21.5-.05.95-.28,1.34-.68.39-.4.74-1.01,1.04-1.83l.6-1.66-6.02-16.52h2.06l4.86,13.86h.15l4.85-13.86h2.06l-6.93,18.95c-.29.79-.65,1.44-1.07,1.97-.43.53-.92.93-1.48,1.18-.56.26-1.18.39-1.87.39Zm23.89-6.14v-21.82h7.04c1.55,0,2.84.3,3.88.89,1.04.59,1.83,1.39,2.36,2.41.53,1.02.79,2.16.79,3.43s-.26,2.42-.78,3.44c-.53,1.01-1.31,1.82-2.35,2.42-1.03.59-2.32.88-3.86.88h-5.54v-1.79h5.48c1.15,0,2.09-.21,2.85-.64.75-.43,1.31-1.02,1.68-1.77.38-.75.56-1.6.56-2.55s-.18-1.8-.56-2.55c-.37-.75-.93-1.33-1.69-1.76-.76-.43-1.71-.64-2.87-.64h-5v20.03h-1.99Zm18.38,0v-16.36h1.91v16.36h-1.91Zm.97-19.18c-.39,0-.73-.13-1-.39-.28-.27-.42-.59-.42-.97s.14-.7.42-.96c.27-.27.61-.4,1-.4s.72.13,1,.4c.28.26.41.58.41.96s-.13.7-.41.97c-.28.26-.61.39-1,.39Zm5.35,14.49v-1.62l9.73-15.51h1.19v2.72h-.88l-7.81,12.49v.14h12.75v1.79h-14.98Zm10.19,4.69v-21.82h1.89v21.82h-1.89Z"/>
  <path class="cls-1" d="m1203.01,742.85c-1.34,0-2.54-.24-3.6-.72-1.06-.49-1.89-1.17-2.51-2.03-.62-.87-.95-1.86-.98-2.99h2.01c.04.8.28,1.49.74,2.09.45.59,1.06,1.05,1.81,1.38.75.33,1.59.49,2.51.49,1.01,0,1.9-.19,2.67-.57.77-.38,1.37-.89,1.81-1.54.44-.66.66-1.41.66-2.24,0-.88-.23-1.66-.67-2.33-.45-.67-1.09-1.2-1.93-1.58-.83-.38-1.83-.56-2.99-.56h-1.27v-1.79h1.27c.95,0,1.78-.17,2.51-.51.73-.35,1.31-.83,1.72-1.46.42-.62.63-1.36.63-2.21s-.18-1.51-.54-2.12c-.36-.61-.87-1.09-1.53-1.44-.66-.35-1.42-.52-2.3-.52s-1.61.16-2.32.49c-.7.33-1.27.79-1.7,1.39-.43.6-.66,1.3-.68,2.12h-1.93c.03-1.14.34-2.13.94-2.99.6-.87,1.4-1.54,2.39-2.02,1-.49,2.11-.74,3.33-.74,1.28,0,2.39.26,3.33.79.94.53,1.66,1.22,2.17,2.1.52.87.78,1.82.78,2.86,0,1.24-.34,2.31-1.01,3.2-.68.88-1.58,1.49-2.73,1.83v.14c1.39.28,2.49.9,3.28,1.85.81.95,1.21,2.12,1.21,3.51,0,1.17-.31,2.21-.92,3.14-.61.92-1.45,1.66-2.51,2.19-1.06.53-2.28.8-3.65.8Zm12.58-.14c-.42,0-.78-.15-1.08-.45-.3-.3-.45-.67-.45-1.09s.15-.79.45-1.09.66-.45,1.08-.45.79.15,1.09.45c.3.3.45.66.45,1.09,0,.28-.07.53-.22.77-.13.23-.32.42-.55.56-.23.14-.48.2-.77.2Zm12.56.14c-1.21,0-2.3-.24-3.26-.73-.95-.5-1.71-1.18-2.28-2.04-.56-.87-.86-1.86-.89-2.97h1.92c.07,1.16.52,2.11,1.37,2.86.84.74,1.89,1.11,3.14,1.11.97,0,1.84-.23,2.6-.69.76-.47,1.35-1.11,1.78-1.92.43-.82.65-1.74.65-2.76-.01-1.07-.24-2-.69-2.81-.46-.82-1.08-1.46-1.86-1.92-.77-.46-1.64-.69-2.61-.69-.73,0-1.45.11-2.15.36-.7.25-1.29.57-1.76.96l-1.99-.26,1.31-10.6h10.78v1.79h-9.11l-.87,7.3h.11c.48-.4,1.07-.73,1.75-.99.7-.26,1.44-.38,2.21-.38,1.28,0,2.44.31,3.46.93,1.03.62,1.84,1.47,2.44,2.56.61,1.08.91,2.32.91,3.73s-.3,2.61-.91,3.7c-.6,1.08-1.42,1.93-2.47,2.56-1.04.62-2.24.94-3.58.94Zm11.59-.3v-16.36h1.9v16.36h-1.9Zm.97-19.18c-.4,0-.73-.13-1.01-.39-.27-.27-.41-.59-.41-.97s.14-.7.41-.96c.28-.27.61-.4,1.01-.4s.72.14,1,.4c.27.26.41.58.41.96s-.14.7-.41.97c-.28.26-.61.39-1,.39Zm7.84,8.95v10.23h-1.89v-16.36h1.84v2.57h.17c.38-.84.98-1.51,1.79-2.01.82-.51,1.83-.77,3.03-.77,1.1,0,2.06.23,2.89.69.84.45,1.49,1.12,1.95,2.01.47.89.71,1.98.71,3.27v10.6h-1.9v-10.48c0-1.34-.38-2.4-1.13-3.19-.74-.78-1.75-1.17-3-1.17-.86,0-1.63.18-2.29.55-.67.37-1.2.9-1.59,1.6-.38.69-.58,1.51-.58,2.46Zm21.87,10.57c-1.46,0-2.73-.37-3.82-1.1-1.08-.73-1.92-1.73-2.52-3.01-.59-1.27-.89-2.72-.89-4.35s.3-3.1.9-4.38c.62-1.28,1.46-2.28,2.54-3,1.08-.73,2.33-1.1,3.76-1.1,1.09,0,2.09.21,2.97.64.89.42,1.62,1.01,2.2,1.78.58.76.95,1.65,1.1,2.66h-1.92c-.2-.92-.68-1.71-1.44-2.36-.75-.66-1.71-.99-2.88-.99-1.04,0-1.96.28-2.77.85-.8.56-1.43,1.35-1.88,2.35-.45,1-.67,2.16-.67,3.48s.22,2.5.66,3.53c.44,1.02,1.05,1.81,1.85,2.39.8.58,1.74.86,2.81.86.73,0,1.39-.14,1.98-.4.61-.28,1.11-.67,1.52-1.17.41-.51.69-1.11.83-1.8h1.92c-.15.99-.5,1.87-1.06,2.64-.55.77-1.27,1.37-2.16,1.81-.88.44-1.89.66-3.03.66Zm12.21-10.57v10.23h-1.9v-21.82h1.9v8.02h.17c.38-.84.97-1.52,1.78-2.02.81-.51,1.83-.76,3.06-.76,1.11,0,2.09.23,2.92.68.84.46,1.49,1.13,1.96,2.01.47.89.71,1.98.71,3.28v10.6h-1.91v-10.48c0-1.35-.38-2.41-1.13-3.19-.75-.78-1.75-1.17-3.03-1.17-.87,0-1.65.18-2.33.55-.68.37-1.22.9-1.62,1.6-.39.69-.58,1.51-.58,2.46Zm24.42,10.23v-21.82h7.04c1.55,0,2.84.28,3.88.84,1.05.55,1.83,1.33,2.36,2.31.53.98.8,2.11.8,3.38s-.27,2.39-.8,3.37c-.53.97-1.31,1.73-2.35,2.28-1.03.55-2.32.82-3.85.82h-6v-1.82h5.94c1.14,0,2.08-.19,2.84-.56.76-.38,1.32-.91,1.69-1.61.38-.7.56-1.52.56-2.47s-.18-1.78-.56-2.49c-.38-.72-.94-1.27-1.7-1.66-.76-.39-1.71-.59-2.86-.59h-5v20.03h-1.99Zm9.62-9.84l5.37,9.84h-2.3l-5.32-9.84h2.25Zm9.31,9.84v-21.82h7.04c1.55,0,2.84.3,3.88.9,1.04.59,1.83,1.39,2.35,2.41.53,1.02.8,2.16.8,3.43s-.26,2.42-.79,3.44c-.52,1.01-1.3,1.82-2.34,2.42-1.04.59-2.33.88-3.87.88h-5.54v-1.79h5.49c1.14,0,2.09-.21,2.84-.64.76-.43,1.32-1.02,1.69-1.77s.56-1.59.56-2.55-.19-1.8-.56-2.55c-.37-.75-.94-1.33-1.7-1.76-.75-.43-1.71-.64-2.86-.64h-5v20.03h-1.99Zm18.37,0v-16.36h1.91v16.36h-1.91Zm.97-19.18c-.39,0-.72-.13-1-.39-.27-.27-.41-.59-.41-.97s.14-.7.41-.96c.28-.27.61-.4,1-.4s.73.14,1.01.4c.27.26.41.58.41.96s-.14.7-.41.97c-.28.26-.61.39-1.01.39Zm14.79,19.18v-21.82h1.99v20.03h10.4v1.79h-12.39Zm33.11-15h-2c-.15-.75-.42-1.43-.81-2.07-.38-.64-.87-1.2-1.45-1.67-.58-.48-1.24-.85-1.98-1.11-.74-.26-1.54-.39-2.4-.39-1.38,0-2.63.36-3.77,1.08-1.13.72-2.03,1.77-2.72,3.16-.67,1.38-1.01,3.08-1.01,5.09s.34,3.73,1.01,5.11c.69,1.38,1.59,2.44,2.72,3.15,1.14.71,2.39,1.07,3.77,1.07.86,0,1.66-.13,2.4-.39s1.4-.63,1.98-1.1c.58-.48,1.07-1.03,1.45-1.67.39-.64.66-1.33.81-2.08h2c-.18,1-.51,1.93-1,2.8-.48.86-1.1,1.61-1.85,2.26s-1.61,1.15-2.58,1.51c-.97.36-2.04.54-3.21.54-1.83,0-3.46-.46-4.88-1.37-1.42-.92-2.53-2.22-3.34-3.9-.8-1.68-1.21-3.65-1.21-5.93s.41-4.26,1.21-5.93c.81-1.68,1.92-2.97,3.34-3.89,1.42-.92,3.05-1.38,4.88-1.38,1.17,0,2.24.18,3.21.54.97.35,1.83.86,2.58,1.51.75.65,1.37,1.4,1.85,2.26.49.86.82,1.79,1,2.8Zm11.07,15h-6.39v-21.82h6.78c2.08,0,3.86.43,5.33,1.3,1.49.87,2.63,2.11,3.41,3.73.79,1.62,1.19,3.56,1.19,5.83s-.41,4.25-1.22,5.89c-.8,1.63-1.97,2.89-3.51,3.76-1.54.87-3.4,1.31-5.59,1.31Zm-4.4-1.79h4.29c1.87,0,3.44-.37,4.71-1.11,1.26-.74,2.21-1.79,2.84-3.16.63-1.37.95-3,.95-4.9-.01-1.88-.32-3.5-.94-4.86-.61-1.36-1.52-2.4-2.73-3.12-1.2-.72-2.68-1.09-4.45-1.09h-4.67v18.24Z"/>
  <path class="cls-5" d="m35.79,531.55h-6.39v-21.82h6.78c2.08,0,3.86.43,5.34,1.3,1.48.87,2.62,2.11,3.41,3.73.79,1.62,1.18,3.56,1.18,5.83s-.4,4.25-1.21,5.89c-.8,1.63-1.97,2.89-3.52,3.76-1.53.87-3.39,1.31-5.58,1.31Zm-4.4-1.79h4.28c1.88,0,3.44-.37,4.71-1.11,1.26-.74,2.21-1.79,2.84-3.16.63-1.37.95-3,.95-4.9,0-1.88-.32-3.5-.94-4.86-.61-1.36-1.52-2.4-2.73-3.12-1.2-.72-2.68-1.09-4.45-1.09h-4.67v18.24Zm25.76,2.13c-1.53,0-2.85-.35-3.96-1.07-1.12-.72-1.98-1.71-2.59-2.97-.6-1.27-.91-2.73-.91-4.39s.3-3.11.91-4.39c.61-1.29,1.45-2.29,2.52-3.02,1.08-.73,2.33-1.1,3.74-1.1.89,0,1.74.16,2.57.49.82.32,1.56.81,2.22,1.48.66.66,1.18,1.5,1.57,2.5.38,1,.58,2.19.58,3.56v.94h-12.78v-1.67h10.85c0-1.05-.21-2-.64-2.83-.42-.84-1.01-1.51-1.76-2-.75-.49-1.61-.74-2.59-.74-1.04,0-1.95.28-2.74.83-.79.55-1.41,1.29-1.85,2.2-.44.91-.66,1.9-.67,2.98v1c0,1.3.22,2.44.67,3.41.45.97,1.1,1.72,1.93,2.25.83.53,1.81.8,2.95.8.77,0,1.45-.12,2.03-.36.59-.24,1.08-.56,1.48-.97.4-.41.71-.86.92-1.35l1.8.59c-.25.69-.66,1.32-1.23,1.91-.56.58-1.26,1.05-2.11,1.41-.84.35-1.8.52-2.9.52Zm21.81-13.11l-1.74.49c-.17-.49-.41-.93-.72-1.33s-.72-.71-1.23-.95c-.5-.23-1.12-.35-1.85-.35-1.11,0-2.02.26-2.73.79-.71.52-1.07,1.2-1.07,2.03,0,.7.24,1.27.72,1.72.49.43,1.24.78,2.26,1.03l2.47.61c1.37.33,2.4.86,3.08,1.59.69.72,1.03,1.63,1.03,2.73,0,.92-.26,1.74-.77,2.46-.51.72-1.23,1.28-2.14,1.69-.91.4-1.96.61-3.16.61-1.6,0-2.92-.36-3.95-1.08-1.04-.73-1.7-1.77-1.99-3.13l1.82-.45c.23.97.69,1.71,1.37,2.21.69.5,1.59.74,2.72.74,1.26,0,2.26-.28,3.01-.84.75-.57,1.13-1.28,1.13-2.13,0-.66-.22-1.21-.66-1.66-.44-.45-1.11-.79-2-1l-2.67-.64c-1.42-.34-2.47-.88-3.15-1.62-.68-.74-1.02-1.66-1.02-2.75,0-.9.25-1.69.74-2.38.49-.69,1.16-1.23,2.02-1.62.86-.39,1.84-.59,2.94-.59,1.5,0,2.7.34,3.59,1.02.9.67,1.55,1.6,1.95,2.79Zm15.38,0l-1.74.49c-.17-.49-.41-.93-.72-1.33-.31-.4-.72-.71-1.23-.95-.5-.23-1.11-.35-1.85-.35-1.11,0-2.02.26-2.73.79-.71.52-1.07,1.2-1.07,2.03,0,.7.24,1.27.72,1.72.49.43,1.24.78,2.26,1.03l2.47.61c1.37.33,2.4.86,3.08,1.59.69.72,1.03,1.63,1.03,2.73,0,.92-.26,1.74-.77,2.46-.51.72-1.22,1.28-2.14,1.69-.91.4-1.96.61-3.16.61-1.6,0-2.92-.36-3.95-1.08-1.04-.73-1.7-1.77-1.99-3.13l1.82-.45c.23.97.69,1.71,1.37,2.21.69.5,1.59.74,2.72.74,1.26,0,2.26-.28,3.01-.84.75-.57,1.13-1.28,1.13-2.13,0-.66-.22-1.21-.66-1.66-.44-.45-1.11-.79-2-1l-2.67-.64c-1.42-.34-2.47-.88-3.15-1.62-.68-.74-1.02-1.66-1.02-2.75,0-.9.25-1.69.74-2.38.49-.69,1.16-1.23,2.02-1.62.86-.39,1.84-.59,2.94-.59,1.5,0,2.69.34,3.59,1.02.9.67,1.55,1.6,1.95,2.79Zm4.41,12.77v-16.36h1.91v16.36h-1.91Zm.97-19.18c-.39,0-.72-.13-1-.39-.28-.27-.42-.59-.42-.97s.14-.7.42-.96c.28-.27.61-.4,1-.4s.72.14,1,.4c.28.26.42.58.42.96s-.14.7-.42.97c-.28.26-.61.39-1,.39Zm7.85,8.95v10.23h-1.9v-16.36h1.84v2.57h.17c.38-.84.98-1.51,1.79-2.01.82-.51,1.83-.77,3.03-.77,1.1,0,2.07.23,2.9.69.84.45,1.49,1.12,1.95,2.01.47.89.7,1.98.7,3.27v10.6h-1.9v-10.48c0-1.34-.38-2.4-1.13-3.19-.75-.78-1.75-1.17-3-1.17-.86,0-1.62.18-2.29.55-.67.37-1.2.9-1.59,1.6-.38.69-.57,1.51-.57,2.46Zm22.09,10.57c-1.53,0-2.85-.35-3.96-1.07-1.12-.72-1.98-1.71-2.59-2.97-.6-1.27-.9-2.73-.9-4.39s.3-3.11.9-4.39c.61-1.29,1.45-2.29,2.52-3.02,1.08-.73,2.33-1.1,3.74-1.1.89,0,1.74.16,2.57.49.82.32,1.56.81,2.22,1.48.66.66,1.18,1.5,1.57,2.5.38,1,.57,2.19.57,3.56v.94h-12.78v-1.67h10.85c0-1.05-.21-2-.64-2.83-.42-.84-1-1.51-1.76-2-.74-.49-1.61-.74-2.59-.74-1.04,0-1.95.28-2.74.83-.79.55-1.41,1.29-1.85,2.2-.44.91-.66,1.9-.67,2.98v1c0,1.3.22,2.44.67,3.41.46.97,1.1,1.72,1.93,2.25.83.53,1.82.8,2.95.8.77,0,1.45-.12,2.04-.36.59-.24,1.08-.56,1.48-.97.4-.41.71-.86.92-1.35l1.8.59c-.25.69-.66,1.32-1.23,1.91-.56.58-1.26,1.05-2.11,1.41-.84.35-1.8.52-2.9.52Zm10.82-.34v-16.36h1.84v2.52h.14c.33-.82.89-1.49,1.7-1.99.82-.51,1.74-.77,2.77-.77.16,0,.33,0,.52.01.19,0,.35.01.48.02v1.93c-.09-.02-.24-.04-.45-.06-.21-.03-.44-.04-.69-.04-.85,0-1.61.18-2.28.54-.66.35-1.18.85-1.57,1.48-.38.63-.58,1.35-.58,2.16v10.57h-1.9Z"/>
  <path class="cls-5" d="m259.4,104.55v-21.82h12.66v1.79h-10.66v8.21h9.99v1.79h-9.99v8.23h10.88v1.79h-12.87Zm19.31-10.23v10.23h-1.9v-16.36h1.84v2.57h.17c.38-.84.98-1.51,1.79-2.01.82-.51,1.83-.77,3.03-.77,1.1,0,2.07.23,2.9.69.84.45,1.49,1.13,1.95,2.01.47.89.7,1.98.7,3.27v10.6h-1.9v-10.48c0-1.34-.38-2.4-1.13-3.19-.75-.78-1.75-1.17-3.01-1.17-.86,0-1.62.18-2.29.55s-1.2.9-1.59,1.6c-.38.69-.58,1.51-.58,2.46Zm27.56-6.14l-5.98,16.36h-2.02l-5.98-16.36h2.06l4.86,13.86h.15l4.86-13.86h2.06Zm9.48,16.7c-1.41,0-2.66-.36-3.75-1.08-1.08-.72-1.92-1.71-2.54-2.97-.61-1.27-.92-2.74-.92-4.4s.3-3.15.92-4.42c.61-1.28,1.46-2.27,2.54-2.98,1.09-.72,2.34-1.08,3.75-1.08s2.66.36,3.74,1.08c1.08.72,1.92,1.71,2.54,2.98.62,1.27.93,2.74.93,4.42s-.3,3.13-.92,4.4c-.61,1.26-1.46,2.25-2.55,2.97-1.08.72-2.33,1.08-3.74,1.08Zm0-1.74c1.14,0,2.1-.3,2.89-.92.79-.61,1.39-1.42,1.79-2.44.41-1.02.62-2.13.62-3.36s-.21-2.34-.62-3.37c-.4-1.02-1-1.84-1.79-2.46-.79-.62-1.75-.93-2.89-.93s-2.09.31-2.89.93c-.79.62-1.39,1.44-1.8,2.46-.4,1.02-.61,2.14-.61,3.37s.2,2.34.61,3.36c.41,1.01,1.01,1.83,1.8,2.44.79.61,1.75.92,2.89.92Zm12.1,7.53c-.38,0-.73-.04-1.05-.11-.33-.07-.59-.15-.78-.24l.51-1.67c.65.2,1.22.27,1.73.21.5-.05.95-.28,1.34-.68.39-.4.74-1.01,1.04-1.83l.6-1.66-6.02-16.52h2.06l4.86,13.86h.15l4.86-13.86h2.06l-6.93,18.95c-.29.79-.65,1.44-1.08,1.97-.43.53-.92.93-1.48,1.18-.55.26-1.17.39-1.86.39Zm21.09-5.79c-1.53,0-2.85-.36-3.96-1.07-1.11-.72-1.98-1.71-2.59-2.97-.6-1.27-.91-2.73-.91-4.39s.3-3.11.91-4.39c.61-1.29,1.45-2.29,2.52-3.01,1.08-.73,2.33-1.1,3.74-1.1.89,0,1.74.16,2.57.49.82.32,1.56.81,2.22,1.48.66.66,1.18,1.5,1.57,2.5.38,1,.58,2.19.58,3.56v.94h-12.78v-1.67h10.85c0-1.05-.21-2-.64-2.83-.42-.85-1.01-1.51-1.76-2-.75-.49-1.61-.74-2.59-.74-1.04,0-1.95.28-2.74.83-.79.55-1.41,1.29-1.85,2.19-.44.91-.66,1.9-.67,2.98v1c0,1.3.22,2.44.67,3.41.46.97,1.1,1.72,1.93,2.25.83.53,1.81.8,2.95.8.77,0,1.45-.12,2.03-.36.59-.24,1.08-.56,1.48-.97.4-.41.71-.86.92-1.35l1.8.59c-.25.69-.66,1.32-1.23,1.91-.56.58-1.26,1.05-2.11,1.41-.84.35-1.8.52-2.9.52Zm10.82-.34v-16.36h1.84v2.51h.14c.33-.82.89-1.49,1.7-1.99.82-.51,1.74-.77,2.77-.77.16,0,.33,0,.52.01.19,0,.35.01.48.02v1.93c-.09-.01-.23-.04-.45-.06-.21-.03-.44-.04-.69-.04-.85,0-1.61.18-2.28.54-.66.36-1.18.85-1.57,1.48-.38.63-.57,1.35-.57,2.16v10.57h-1.9Z"/>
  <path class="cls-5" d="m1253.43,378.55h-2.09l7.94-21.82h2.13l7.94,21.82h-2.09l-6.84-19.23h-.15l-6.84,19.23Zm1.5-8.36h10.83v1.79h-10.83v-1.79Zm24.49-8v1.65h-8.04v-1.65h8.04Zm-5.53,16.36v-18.76c0-.88.21-1.62.61-2.23.41-.6.95-1.06,1.61-1.38.66-.31,1.36-.47,2.1-.47.5,0,.91.04,1.24.13.33.08.59.16.78.23l-.55,1.66c-.14-.04-.32-.09-.52-.15-.21-.06-.47-.09-.78-.09-.82,0-1.46.23-1.91.69-.44.46-.67,1.12-.67,1.98v18.37h-1.91Zm16.05-16.36v1.65h-8.04v-1.65h8.04Zm-5.53,16.36v-18.76c0-.88.2-1.62.61-2.23.41-.6.95-1.06,1.61-1.38.66-.31,1.36-.47,2.1-.47.49,0,.91.04,1.23.13.34.08.6.16.79.23l-.55,1.66c-.14-.04-.32-.09-.52-.15-.21-.06-.47-.09-.78-.09-.83,0-1.46.23-1.91.69s-.67,1.12-.67,1.98v18.37h-1.91Zm9.34,0v-16.36h1.9v16.36h-1.9Zm.97-19.18c-.39,0-.73-.13-1-.39-.28-.27-.42-.59-.42-.97s.14-.7.42-.96c.27-.27.61-.4,1-.4s.72.14,1,.4c.28.26.41.58.41.96s-.13.7-.41.97c-.28.26-.61.39-1,.39Zm12.34,19.52c-1.46,0-2.74-.37-3.82-1.1-1.08-.73-1.92-1.73-2.52-3-.59-1.27-.89-2.72-.89-4.35s.3-3.1.9-4.38c.61-1.28,1.46-2.28,2.54-3,1.08-.73,2.33-1.1,3.76-1.1,1.09,0,2.08.21,2.97.64.89.42,1.62,1.01,2.2,1.78.58.76.94,1.65,1.09,2.66h-1.91c-.2-.92-.68-1.71-1.44-2.36-.75-.66-1.71-.99-2.88-.99-1.04,0-1.97.29-2.77.85-.8.56-1.43,1.35-1.88,2.35-.45,1-.68,2.16-.68,3.48s.23,2.5.67,3.53c.44,1.02,1.05,1.81,1.85,2.39.8.58,1.74.86,2.81.86.73,0,1.39-.14,1.98-.4.61-.28,1.11-.67,1.52-1.17.41-.51.68-1.11.83-1.8h1.91c-.14.99-.49,1.87-1.05,2.64-.55.77-1.28,1.37-2.16,1.81-.88.44-1.89.66-3.03.66Zm12.21-10.57v10.23h-1.9v-21.82h1.9v8.02h.17c.38-.85.97-1.52,1.77-2.02.81-.51,1.84-.76,3.07-.76,1.11,0,2.08.23,2.92.68.84.45,1.49,1.13,1.96,2.01.47.89.71,1.98.71,3.28v10.6h-1.91v-10.48c0-1.35-.38-2.41-1.13-3.18-.75-.78-1.76-1.17-3.03-1.17-.87,0-1.65.18-2.33.55-.68.37-1.22.9-1.62,1.6-.39.69-.58,1.51-.58,2.46Zm22.2,10.57c-1.52,0-2.84-.36-3.96-1.07-1.11-.72-1.98-1.71-2.59-2.97-.6-1.27-.9-2.73-.9-4.39s.3-3.11.9-4.39c.61-1.29,1.46-2.29,2.53-3.01,1.08-.73,2.32-1.1,3.74-1.1.88,0,1.74.16,2.56.49.83.32,1.57.81,2.22,1.48.66.66,1.18,1.49,1.57,2.5.38,1,.57,2.19.57,3.56v.94h-12.78v-1.67h10.84c0-1.05-.21-2-.64-2.83-.42-.85-1-1.51-1.75-2-.75-.49-1.61-.74-2.59-.74-1.04,0-1.95.28-2.74.83-.79.55-1.41,1.29-1.85,2.2-.44.91-.67,1.9-.68,2.98v1c0,1.3.23,2.44.68,3.41.45.96,1.09,1.71,1.92,2.25.83.53,1.82.8,2.95.8.78,0,1.46-.12,2.04-.36.59-.24,1.08-.56,1.48-.97.41-.41.71-.86.92-1.35l1.8.59c-.25.69-.66,1.32-1.23,1.91-.56.58-1.26,1.05-2.11,1.41-.84.35-1.8.52-2.9.52Zm10.82-.34v-16.36h1.84v2.52h.14c.33-.82.9-1.49,1.71-1.99.81-.51,1.74-.77,2.77-.77.15,0,.33,0,.52.01.19,0,.35.01.48.02v1.93c-.09-.01-.24-.04-.45-.06-.21-.03-.44-.04-.69-.04-.85,0-1.61.18-2.28.54-.66.36-1.18.85-1.57,1.48-.38.63-.57,1.35-.57,2.16v10.57h-1.9Z"/>
  <path class="cls-5" d="m985.4,62.55v-21.82h12.65v1.79h-10.66v8.21h9.99v1.79h-9.99v8.24h10.88v1.79h-12.87Zm19.31-10.23v10.23h-1.89v-16.36h1.84v2.57h.17c.38-.84.98-1.51,1.79-2.01.82-.51,1.82-.77,3.02-.77,1.11,0,2.07.23,2.9.69.84.45,1.49,1.13,1.95,2.01.47.89.71,1.98.71,3.27v10.6h-1.9v-10.48c0-1.34-.38-2.4-1.13-3.19-.75-.78-1.75-1.17-3-1.17-.86,0-1.63.18-2.29.55-.67.37-1.2.9-1.59,1.6-.39.69-.58,1.51-.58,2.46Zm27.56-6.14l-5.98,16.36h-2.02l-5.98-16.36h2.06l4.86,13.86h.15l4.85-13.86h2.06Zm9.48,16.7c-1.41,0-2.66-.36-3.75-1.08-1.08-.72-1.92-1.71-2.53-2.97-.61-1.27-.92-2.74-.92-4.4s.31-3.15.92-4.42c.61-1.28,1.45-2.27,2.53-2.98,1.09-.72,2.34-1.08,3.75-1.08s2.66.36,3.74,1.08c1.08.72,1.93,1.71,2.54,2.98.62,1.27.93,2.74.93,4.42s-.31,3.13-.92,4.4c-.61,1.26-1.46,2.26-2.55,2.97-1.08.72-2.32,1.08-3.74,1.08Zm0-1.74c1.14,0,2.1-.31,2.89-.92.79-.61,1.39-1.42,1.79-2.44.41-1.02.62-2.13.62-3.36s-.21-2.34-.62-3.37c-.4-1.02-1-1.84-1.79-2.46s-1.75-.93-2.89-.93-2.09.31-2.88.93-1.39,1.44-1.8,2.46c-.41,1.02-.61,2.14-.61,3.37s.2,2.34.61,3.36c.41,1.02,1.01,1.83,1.8,2.44.79.61,1.75.92,2.88.92Zm12.1,7.53c-.37,0-.72-.04-1.05-.11-.33-.07-.59-.15-.78-.23l.51-1.67c.65.2,1.22.27,1.73.21.5-.05.95-.28,1.34-.68.39-.4.74-1.01,1.05-1.83l.59-1.66-6.02-16.52h2.06l4.86,13.86h.15l4.85-13.86h2.06l-6.92,18.95c-.3.79-.65,1.45-1.08,1.97-.43.53-.92.93-1.48,1.18-.56.26-1.18.39-1.87.39Zm21.09-5.8c-1.53,0-2.85-.36-3.96-1.07-1.12-.72-1.98-1.71-2.59-2.97-.61-1.27-.91-2.73-.91-4.39s.3-3.11.91-4.39c.61-1.29,1.45-2.29,2.52-3.01,1.08-.73,2.33-1.1,3.74-1.1.89,0,1.75.16,2.57.49.82.32,1.56.81,2.22,1.48.66.66,1.18,1.5,1.56,2.5.38,1,.58,2.19.58,3.56v.94h-12.79v-1.67h10.85c0-1.05-.22-2-.64-2.83-.42-.85-1.01-1.51-1.76-2-.74-.49-1.61-.74-2.59-.74-1.03,0-1.95.28-2.74.83-.78.55-1.4,1.29-1.85,2.19-.44.91-.66,1.9-.67,2.98v1c0,1.3.22,2.44.67,3.41.45.97,1.1,1.72,1.93,2.25s1.81.8,2.95.8c.77,0,1.45-.12,2.03-.36.59-.24,1.09-.56,1.49-.97.4-.41.71-.86.91-1.35l1.8.59c-.25.69-.66,1.32-1.22,1.91-.56.58-1.27,1.05-2.11,1.41-.84.35-1.81.52-2.9.52Zm10.82-.34v-16.36h1.84v2.51h.14c.32-.82.89-1.49,1.7-1.99.82-.51,1.74-.77,2.77-.77.16,0,.33,0,.52.01.2,0,.36.01.48.02v1.93c-.08-.01-.23-.04-.44-.06-.22-.03-.45-.04-.7-.04-.85,0-1.61.18-2.28.54-.66.36-1.18.85-1.56,1.48-.39.63-.58,1.35-.58,2.16v10.57h-1.89Z"/>
  <path class="cls-5" d="m977.09,149.55v-21.82h7.04c1.55,0,2.84.28,3.88.84,1.04.55,1.83,1.33,2.35,2.31.54.98.8,2.11.8,3.38s-.26,2.39-.8,3.37c-.52.97-1.3,1.73-2.34,2.28-1.04.55-2.32.82-3.86.82h-6v-1.82h5.95c1.14,0,2.08-.19,2.83-.56.76-.38,1.33-.91,1.7-1.61s.56-1.52.56-2.47-.19-1.78-.56-2.49c-.38-.72-.95-1.27-1.71-1.66-.75-.39-1.7-.59-2.85-.59h-5v20.03h-1.99Zm9.62-9.84l5.37,9.84h-2.3l-5.32-9.84h2.25Zm15.35,10.18c-1.53,0-2.85-.36-3.96-1.07-1.12-.72-1.98-1.71-2.59-2.97-.6-1.27-.91-2.73-.91-4.39s.31-3.11.91-4.39c.61-1.29,1.45-2.29,2.52-3.01,1.08-.73,2.33-1.1,3.74-1.1.89,0,1.75.16,2.57.49.82.32,1.56.81,2.22,1.48.66.66,1.18,1.49,1.56,2.5.39,1,.58,2.19.58,3.56v.94h-12.79v-1.67h10.85c0-1.05-.21-2-.64-2.83-.42-.85-1.01-1.51-1.76-2-.74-.49-1.61-.74-2.59-.74-1.03,0-1.95.28-2.73.83-.79.55-1.41,1.29-1.86,2.2-.44.91-.66,1.9-.67,2.98v1c0,1.3.22,2.44.67,3.41.46.96,1.1,1.71,1.93,2.25.83.53,1.81.8,2.95.8.77,0,1.45-.12,2.04-.36.59-.24,1.08-.56,1.48-.97.4-.41.71-.86.91-1.35l1.8.59c-.25.69-.65,1.32-1.22,1.91-.56.58-1.27,1.05-2.11,1.41-.84.35-1.81.52-2.9.52Zm21.91,5.79v-9.17h-.17c-.22.5-.54,1.01-.94,1.53-.41.52-.94.96-1.61,1.31s-1.49.53-2.48.53c-1.34,0-2.51-.36-3.53-1.07-1.01-.71-1.8-1.7-2.36-2.97-.56-1.27-.85-2.75-.85-4.44s.29-3.16.85-4.42c.56-1.27,1.36-2.26,2.37-2.96,1.02-.71,2.2-1.07,3.55-1.07,1,0,1.83.18,2.48.53.66.35,1.19.79,1.59,1.31.4.51.71,1.01.93,1.5h.22v-3.12h1.85v22.5h-1.9Zm-4.98-7.53c1.06,0,1.96-.29,2.71-.86.74-.58,1.31-1.38,1.7-2.4.4-1.02.6-2.19.6-3.51s-.2-2.46-.59-3.46c-.39-1.01-.96-1.8-1.7-2.36-.74-.58-1.65-.86-2.72-.86s-2.02.3-2.77.9c-.75.59-1.32,1.39-1.7,2.4-.39,1.01-.58,2.14-.58,3.4s.2,2.42.59,3.44c.39,1.02.96,1.84,1.71,2.44.76.6,1.67.89,2.75.89Zm22.27-4.86v-10.11h1.9v16.36h-1.9v-2.72h-.15c-.38.84-.99,1.54-1.82,2.1-.83.55-1.84.83-3.05.83-1.04,0-1.97-.23-2.78-.68-.81-.46-1.44-1.14-1.9-2.02-.46-.89-.7-1.98-.7-3.27v-10.6h1.9v10.48c0,1.28.38,2.31,1.13,3.09.75.77,1.72,1.16,2.9,1.16.74,0,1.45-.18,2.13-.53.68-.36,1.24-.87,1.68-1.56.44-.69.66-1.53.66-2.54Zm13.54,6.6c-1.53,0-2.85-.36-3.97-1.07-1.11-.72-1.98-1.71-2.59-2.97-.6-1.27-.9-2.73-.9-4.39s.3-3.11.9-4.39c.61-1.29,1.46-2.29,2.53-3.01,1.08-.73,2.32-1.1,3.74-1.1.89,0,1.74.16,2.56.49.83.32,1.57.81,2.22,1.48.66.66,1.18,1.49,1.57,2.5.38,1,.57,2.19.57,3.56v.94h-12.78v-1.67h10.84c0-1.05-.21-2-.64-2.83-.41-.85-1-1.51-1.75-2-.75-.49-1.61-.74-2.59-.74-1.04,0-1.95.28-2.74.83s-1.41,1.29-1.85,2.2c-.44.91-.67,1.9-.68,2.98v1c0,1.3.23,2.44.68,3.41.45.96,1.09,1.71,1.92,2.25.84.53,1.82.8,2.96.8.77,0,1.45-.12,2.03-.36.59-.24,1.08-.56,1.48-.97.41-.41.71-.86.92-1.35l1.8.59c-.25.69-.66,1.32-1.23,1.91-.56.58-1.26,1.05-2.11,1.41-.84.35-1.8.52-2.89.52Zm2.16-18.58l-2.55-3.08-2.54,3.08h-1.86v-.14l3.6-4.29h1.6l3.6,4.29v.14h-1.85Zm15.1,1.88v1.65h-7.81v-1.65h7.81Zm-5.37-3.92h1.9v16.01c0,.68.12,1.22.36,1.61.23.38.54.66.91.82.38.16.78.23,1.21.23.24,0,.46-.01.63-.04.18-.04.34-.07.47-.11l.41,1.71c-.19.07-.41.13-.68.19-.27.06-.61.1-1,.1-.7,0-1.37-.15-2.02-.46-.64-.31-1.16-.76-1.58-1.36-.41-.6-.61-1.35-.61-2.25v-16.46Zm16.11,20.62c-1.52,0-2.85-.36-3.96-1.07-1.12-.72-1.98-1.71-2.59-2.97-.6-1.27-.9-2.73-.9-4.39s.3-3.11.9-4.39c.61-1.29,1.45-2.29,2.53-3.01,1.08-.73,2.32-1.1,3.74-1.1.88,0,1.74.16,2.56.49.83.32,1.57.81,2.22,1.48.66.66,1.18,1.49,1.56,2.5.39,1,.58,2.19.58,3.56v.94h-12.78v-1.67h10.84c0-1.05-.21-2-.64-2.83-.42-.85-1-1.51-1.76-2-.74-.49-1.6-.74-2.58-.74-1.04,0-1.95.28-2.74.83-.79.55-1.41,1.29-1.86,2.2-.44.91-.66,1.9-.67,2.98v1c0,1.3.23,2.44.67,3.41.46.96,1.1,1.71,1.93,2.25.83.53,1.82.8,2.95.8.78,0,1.46-.12,2.04-.36.59-.24,1.08-.56,1.48-.97.4-.41.71-.86.91-1.35l1.81.59c-.25.69-.66,1.32-1.23,1.91-.56.58-1.26,1.05-2.11,1.41-.84.35-1.8.52-2.9.52Zm10.82-.34v-16.36h1.84v2.51h.14c.33-.82.9-1.49,1.7-1.99.82-.51,1.74-.77,2.77-.77.16,0,.34,0,.53.01.19,0,.35.01.48.02v1.93c-.09-.01-.24-.04-.45-.06-.21-.03-.45-.04-.69-.04-.86,0-1.62.18-2.28.54-.66.36-1.19.85-1.57,1.48s-.57,1.35-.57,2.16v10.57h-1.9Zm-126.44,17.86c0-1.71.22-3.32.65-4.83.43-1.51,1.05-2.94,1.85-4.26h1.15c-.35.56-.66,1.19-.95,1.9-.28.71-.53,1.46-.74,2.26-.21.8-.37,1.62-.48,2.46-.11.83-.17,1.66-.17,2.48,0,1.09.1,2.2.3,3.31.2,1.11.47,2.17.82,3.17.35,1,.76,1.87,1.22,2.61h-1.15c-.8-1.33-1.42-2.75-1.85-4.27-.43-1.51-.65-3.12-.65-4.82Zm10.71-4.77v1.1h-5.21v-1.1h5.21Zm-3.58-2.61h1.27v10.67c0,.46.08.81.23,1.07.16.26.36.44.61.55.25.1.52.16.8.16.17,0,.31,0,.43-.03.12-.02.22-.05.31-.07l.27,1.14c-.12.05-.27.09-.45.13-.18.04-.4.06-.67.06-.46,0-.91-.1-1.34-.3-.43-.2-.78-.51-1.05-.91-.27-.4-.41-.9-.41-1.5v-10.97Zm10.57,13.75c-.94,0-1.78-.24-2.5-.72-.72-.48-1.28-1.14-1.69-1.98-.41-.85-.61-1.82-.61-2.93s.2-2.1.61-2.95c.41-.85.97-1.51,1.69-1.99.72-.48,1.56-.72,2.5-.72s1.77.24,2.49.72c.72.48,1.28,1.14,1.69,1.99.41.85.62,1.83.62,2.95s-.21,2.09-.61,2.93c-.41.84-.98,1.5-1.7,1.98-.72.48-1.55.72-2.49.72Zm0-1.16c.76,0,1.4-.2,1.93-.61.52-.41.92-.95,1.19-1.63.28-.68.42-1.42.42-2.24s-.14-1.56-.42-2.24c-.27-.68-.66-1.23-1.19-1.64-.53-.41-1.17-.62-1.93-.62s-1.39.21-1.92.62c-.52.41-.92.96-1.2,1.64-.27.68-.4,1.43-.4,2.24s.14,1.56.4,2.24c.28.68.68,1.22,1.2,1.63.53.41,1.17.61,1.92.61Zm14.5-3.24v-6.74h1.27v10.91h-1.27v-1.81h-.1c-.25.56-.66,1.03-1.21,1.4-.55.37-1.23.55-2.03.55-.7,0-1.32-.15-1.85-.45-.54-.31-.97-.76-1.28-1.35-.3-.59-.46-1.32-.46-2.18v-7.07h1.27v6.99c0,.85.25,1.54.75,2.06.5.52,1.15.77,1.93.77.49,0,.97-.12,1.42-.35.46-.24.83-.58,1.12-1.04.3-.46.44-1.02.44-1.69Zm8.91-6.74v1.1h-5.2v-1.1h5.2Zm-3.58-2.61h1.27v10.67c0,.46.08.81.24,1.07.15.26.36.44.61.55.25.1.52.16.8.16.17,0,.31,0,.43-.03.12-.02.22-.05.31-.07l.27,1.14c-.12.05-.27.09-.45.13-.18.04-.41.06-.67.06-.47,0-.91-.1-1.34-.3s-.78-.51-1.06-.91c-.27-.4-.41-.9-.41-1.5v-10.97Zm10.75,13.75c-1.02,0-1.9-.24-2.65-.71-.74-.48-1.31-1.14-1.72-1.98-.4-.85-.61-1.82-.61-2.93s.21-2.07.61-2.93c.41-.86.97-1.53,1.68-2.01.72-.49,1.55-.73,2.49-.73.6,0,1.17.11,1.72.33.55.21,1.04.54,1.47.99.44.44.79,1,1.05,1.67.25.67.38,1.46.38,2.37v.62h-8.52v-1.11h7.23c0-.7-.14-1.33-.43-1.89-.28-.56-.67-1.01-1.17-1.34-.5-.33-1.07-.49-1.73-.49s-1.29.18-1.82.55c-.53.37-.94.86-1.24,1.46-.29.61-.44,1.27-.44,1.99v.67c0,.87.15,1.62.44,2.27.31.64.74,1.14,1.29,1.5s1.21.53,1.97.53c.51,0,.96-.08,1.35-.24.4-.16.73-.38.99-.65.27-.28.47-.58.61-.9l1.2.39c-.16.46-.44.88-.82,1.27-.37.39-.84.7-1.4.94-.56.23-1.2.35-1.93.35Zm14.54-8.74l-1.16.33c-.11-.33-.28-.62-.48-.89-.21-.26-.48-.48-.82-.63-.33-.16-.74-.23-1.24-.23-.74,0-1.34.17-1.81.52-.48.35-.71.8-.71,1.36,0,.47.16.85.48,1.14.32.29.83.52,1.5.69l1.65.4c.92.22,1.6.58,2.05,1.06.46.48.69,1.09.69,1.82,0,.62-.17,1.16-.51,1.64-.34.48-.82.86-1.43,1.13-.6.27-1.31.4-2.11.4-1.06,0-1.94-.24-2.63-.72-.69-.48-1.13-1.18-1.33-2.09l1.22-.3c.15.65.46,1.14.91,1.47.46.33,1.07.5,1.81.5.84,0,1.51-.19,2.01-.56.51-.38.76-.85.76-1.42,0-.44-.15-.81-.44-1.11-.3-.3-.74-.53-1.34-.67l-1.78-.43c-.95-.23-1.65-.59-2.1-1.08-.46-.49-.69-1.1-.69-1.83,0-.6.17-1.13.49-1.58.33-.46.78-.82,1.35-1.08.58-.26,1.23-.39,1.96-.39,1,0,1.8.23,2.4.68.6.45,1.03,1.07,1.3,1.86Zm9.81-6.03v14.54h-1.26v-14.54h1.26Zm7.76,14.77c-1.02,0-1.9-.24-2.65-.71-.74-.48-1.31-1.14-1.72-1.98-.4-.85-.61-1.82-.61-2.93s.21-2.07.61-2.93c.41-.86.97-1.53,1.68-2.01.72-.49,1.55-.73,2.49-.73.6,0,1.17.11,1.72.33.55.21,1.04.54,1.47.99.44.44.79,1,1.05,1.67.25.67.38,1.46.38,2.37v.62h-8.52v-1.11h7.23c0-.7-.14-1.33-.43-1.89-.28-.56-.67-1.01-1.17-1.34-.5-.33-1.07-.49-1.73-.49s-1.3.18-1.82.55c-.53.37-.94.86-1.24,1.46-.29.61-.44,1.27-.44,1.99v.67c0,.87.14,1.62.44,2.27.31.64.73,1.14,1.29,1.5.55.35,1.21.53,1.97.53.51,0,.96-.08,1.35-.24.4-.16.72-.38.99-.65.27-.28.47-.58.61-.9l1.2.39c-.17.46-.44.88-.82,1.27-.37.39-.84.7-1.4.94-.56.23-1.2.35-1.93.35Zm14.54-8.74l-1.16.33c-.12-.33-.28-.62-.48-.89-.21-.26-.49-.48-.82-.63-.33-.16-.74-.23-1.24-.23-.74,0-1.34.17-1.82.52-.47.35-.71.8-.71,1.36,0,.47.17.85.49,1.14.32.29.83.52,1.5.69l1.65.4c.91.22,1.6.58,2.05,1.06.46.48.69,1.09.69,1.82,0,.62-.17,1.16-.51,1.64-.34.48-.82.86-1.43,1.13-.6.27-1.31.4-2.11.4-1.06,0-1.94-.24-2.63-.72-.69-.48-1.13-1.18-1.33-2.09l1.22-.3c.15.65.46,1.14.91,1.47.46.33,1.06.5,1.81.5.84,0,1.51-.19,2.01-.56.5-.38.76-.85.76-1.42,0-.44-.15-.81-.44-1.11-.3-.3-.74-.53-1.34-.67l-1.78-.43c-.95-.23-1.65-.59-2.11-1.08-.45-.49-.68-1.1-.68-1.83,0-.6.17-1.13.49-1.58.33-.46.78-.82,1.35-1.08.58-.26,1.23-.39,1.96-.39,1,0,1.8.23,2.4.68.6.45,1.03,1.07,1.3,1.86Zm13.22,8.72c-.9,0-1.7-.16-2.4-.48-.71-.33-1.27-.78-1.68-1.36-.41-.58-.63-1.24-.65-1.99h1.34c.02.53.19.99.49,1.39.3.39.71.7,1.21.92.5.22,1.06.33,1.67.33.68,0,1.27-.13,1.78-.38.52-.25.92-.59,1.21-1.03.29-.44.44-.94.44-1.49,0-.59-.15-1.11-.45-1.56-.3-.45-.73-.8-1.29-1.05-.55-.25-1.21-.38-1.98-.38h-.86v-1.19h.86c.63,0,1.18-.11,1.67-.34.48-.23.87-.56,1.15-.97.28-.42.41-.91.41-1.47s-.12-1.01-.36-1.41c-.24-.41-.58-.73-1.02-.96-.44-.23-.94-.35-1.53-.35s-1.08.11-1.55.33c-.46.22-.84.53-1.13.92-.29.4-.44.87-.46,1.41h-1.28c.02-.76.23-1.42.62-2,.41-.58.94-1.03,1.6-1.35.67-.33,1.41-.49,2.22-.49.85,0,1.6.18,2.22.53.63.35,1.11.82,1.45,1.4.34.58.52,1.22.52,1.91,0,.83-.23,1.54-.68,2.13-.45.59-1.05.99-1.82,1.22v.09c.93.18,1.66.6,2.19,1.24.54.64.8,1.41.8,2.34,0,.78-.2,1.47-.61,2.1-.4.62-.96,1.1-1.67,1.46-.71.35-1.52.53-2.43.53Zm12.37,0c-1.02,0-1.9-.29-2.62-.88-.72-.59-1.27-1.45-1.66-2.56-.39-1.12-.58-2.46-.58-4.03s.19-2.9.58-4.01c.39-1.12.94-1.97,1.67-2.56.73-.6,1.6-.9,2.61-.9s1.88.3,2.61.9c.73.59,1.28,1.45,1.67,2.56.38,1.11.58,2.45.58,4.01s-.2,2.91-.58,4.03c-.39,1.12-.94,1.97-1.67,2.56-.72.59-1.59.88-2.61.88Zm0-1.19c1.12,0,2-.55,2.63-1.64.63-1.1.94-2.64.94-4.64,0-1.33-.14-2.46-.43-3.4-.28-.94-.69-1.66-1.23-2.16-.53-.5-1.17-.75-1.91-.75-1.11,0-1.99.55-2.62,1.66-.63,1.1-.95,2.65-.95,4.64,0,1.33.14,2.46.42,3.39.29.94.7,1.65,1.23,2.15.54.49,1.18.74,1.92.74Zm15.13-7.52l-1.16.33c-.11-.33-.27-.62-.48-.89-.21-.26-.48-.48-.82-.63-.33-.16-.74-.23-1.23-.23-.74,0-1.35.17-1.82.52-.48.35-.71.8-.71,1.36,0,.47.16.85.48,1.14.33.29.83.52,1.51.69l1.64.4c.92.22,1.6.58,2.06,1.06.46.48.68,1.09.68,1.82,0,.62-.17,1.16-.51,1.64-.34.48-.81.86-1.42,1.13-.61.27-1.31.4-2.11.4-1.07,0-1.95-.24-2.64-.72-.69-.48-1.13-1.18-1.33-2.09l1.22-.3c.15.65.46,1.14.91,1.47.46.33,1.07.5,1.82.5.83,0,1.5-.19,2.01-.56.5-.38.75-.85.75-1.42,0-.44-.15-.81-.44-1.11-.3-.3-.74-.53-1.34-.67l-1.78-.43c-.95-.23-1.65-.59-2.1-1.08-.46-.49-.68-1.1-.68-1.83,0-.6.16-1.13.49-1.58.32-.46.77-.82,1.35-1.08.57-.26,1.22-.39,1.96-.39.99,0,1.79.23,2.39.68.6.45,1.03,1.07,1.3,1.86Zm5.99,2.38c0,1.7-.21,3.31-.65,4.83-.43,1.51-1.04,2.94-1.85,4.26h-1.15c.35-.56.66-1.19.95-1.9.28-.71.53-1.46.74-2.26s.37-1.62.48-2.46c.12-.84.17-1.66.17-2.48,0-1.09-.1-2.2-.29-3.31-.2-1.11-.48-2.17-.83-3.17-.36-1-.76-1.87-1.22-2.61h1.15c.81,1.33,1.42,2.75,1.85,4.27.44,1.51.65,3.12.65,4.82Z"/>
  <path class="cls-3" d="m1305.5,222.55v112"/>
  <path class="cls-3" d="m1120.5,139.55l104-1"/>
  <path class="cls-3" d="m830.5,51.55h134"/>
</svg>