<?xml version="1.0" encoding="UTF-8"?>
<svg id="Calque_1" data-name="Calque 1" xmlns="http://www.w3.org/2000/svg" viewBox="0 0 506.95 52.06">
  <defs>
    <style>
      .cls-1 {
        fill: gold;
      }
    </style>
  </defs>
  <path class="cls-1" d="M39.46,19.3c0,5.69-2.09,10.44-6.12,13.54-3.6,2.88-8.5,4.32-14.19,4.32h-4.54v14.04H0v-17.07H19.15c4.03,0,17.28-1.01,17.28-14.83,0-9.5-6.62-15.41-17.28-15.41H3.02V23.83H11.59V11.81h7.56c5.18,0,8.57,2.95,8.57,7.49s-3.24,7.56-8.57,7.56H0V.86H19.15c12.31,0,20.31,7.2,20.31,18.43ZM11.59,37.23H3.02v10.94H11.59v-10.94Zm3.02-13.39h4.54c3.67,0,5.54-1.51,5.54-4.54,0-2.81-2.02-4.46-5.54-4.46h-4.54v9Z"/>
  <path class="cls-1" d="M58.83,.86V51.2h-14.62V.86h3.02V48.17h8.57V.86h3.02Z"/>
  <path class="cls-1" d="M111.24,51.2h-3.6l-2.02-3.02-1.94-3.02-10.37-16.2-1.8-2.81-4.61-7.13-1.8-2.81-7.92-12.38h-9l12.38,19.51,1.8,2.81,4.54,7.2,1.8,2.81,4.68,7.27,.36,.58,2.59,4.18,1.94,3.02h-3.6l-4.68-7.34-3.1-4.82-7.78,12.17h-16.49l16.13-25.06L62.64,.79h16.2l8.07,12.6L95.04,.79h16.13l-16.06,25.35,8.5,13.25,2.74,4.25,4.9,7.56Zm-30.67-22.25l-12.38,19.23h9.29l7.63-12.02-4.54-7.2ZM105.7,3.82h-9l-7.99,12.38,4.61,7.13L105.7,3.82Z"/>
  <path class="cls-1" d="M129.46,37.3h18.15v13.9h-32.76V29.45h27v-7.34h-27V.86h32.19V14.83h-17.57v4.25h15.41v13.39h-15.41v4.82Zm-3.02-25.49h17.57V3.89h-26.14v15.19h8.57v-7.27Zm18.15,28.51h-18.15v-7.85h-8.57v15.7h26.71v-7.85Z"/>
  <path class="cls-1" d="M186.19,37.3v13.9h-20.74V3.89h-8.57V51.2h-3.02V.86h14.69V37.3h17.64Zm-3.1,3.02h-14.54v7.85h14.54v-7.85Z"/>
  <path class="cls-1" d="M255.17,19.3c0,5.69-2.09,10.44-6.12,13.54-3.6,2.88-8.5,4.32-14.19,4.32h-4.54v14.04h-14.62v-17.07h19.15c4.03,0,17.28-1.01,17.28-14.83,0-9.5-6.62-15.41-17.28-15.41h-16.13V23.83h8.57V11.81h7.56c5.18,0,8.57,2.95,8.57,7.49s-3.24,7.56-8.57,7.56h-19.15V.86h19.15c12.31,0,20.31,7.2,20.31,18.43Zm-27.87,17.93h-8.57v10.94h8.57v-10.94Zm3.02-13.39h4.54c3.67,0,5.54-1.51,5.54-4.54,0-2.81-2.02-4.46-5.54-4.46h-4.54v9Z"/>
  <path class="cls-1" d="M274.32,37.3h18.15v13.9h-32.76V29.45h27v-7.34h-27V.86h32.19V14.83h-17.57v4.25h15.41v13.39h-15.41v4.82Zm-3.02-25.49h17.57V3.89h-26.14v15.19h8.57v-7.27Zm18.15,28.51h-18.15v-7.85h-8.57v15.7h26.71v-7.85Z"/>
  <path class="cls-1" d="M341.71,51.2h-15.77l-7.99-15.84h-4.82v15.84h-14.62v-18.87h21.31l7.99,15.84h8.79l-9.58-17.57,1.3-.72c4.32-2.38,6.55-6.26,6.55-11.16,0-9.29-6.26-14.83-16.63-14.83h-16.71V22.61h8.5V11.81h8.21c4.82,0,7.99,2.66,7.99,6.91s-3.02,6.91-7.99,6.91h-19.73V.86h19.73c12.1,0,19.66,6.84,19.66,17.86,0,5.47-2.38,10.01-6.77,13.03l10.58,19.44Zm-31.68-15.84h-8.5v12.82h8.5v-12.82Zm3.1-12.75h5.11c3.24,0,4.97-1.3,4.97-3.89,0-3.38-3.17-3.89-4.97-3.89h-5.11v7.78Z"/>
  <path class="cls-1" d="M360.14,14.83v5.98h15.91v13.9h-15.91v16.49h-14.62V31.68h27.51v-7.85h-27.51V.86h32.47V14.83h-17.86Zm14.83-3.02V3.89h-26.43V20.74h8.5V11.81h17.93Zm-17.93,22.9h-8.5v13.46h8.5v-13.46Z"/>
  <path class="cls-1" d="M397.8,37.3h18.15v13.9h-32.76V29.45h27v-7.34h-27V.86h32.19V14.83h-17.57v4.25h15.41v13.39h-15.41v4.82Zm-3.02-25.49h17.57V3.89h-26.14v15.19h8.57v-7.27Zm18.15,28.51h-18.15v-7.85h-8.57v15.7h26.71v-7.85Z"/>
  <path class="cls-1" d="M464.47,39.32l2.52,1.66-.94,1.22c-.07,.14-.14,.22-.22,.29-4.68,6.05-12.03,9.58-20.16,9.58-7.13,0-13.68-2.66-18.36-7.49-4.61-4.75-7.2-11.38-7.2-18.58s2.59-13.83,7.2-18.58c4.68-4.75,11.23-7.42,18.36-7.42,8.28,0,15.62,3.53,20.38,9.72l.94,1.3-12.17,7.99-.86-1.08c-1.37-1.73-3.89-3.74-8.28-3.74-7.49,0-10.87,6.12-10.87,11.81s3.38,11.88,10.87,11.88c1.3,0,2.45-.22,3.53-.58,1.73-.5,3.24-1.51,4.46-2.88,.07-.14,.22-.22,.29-.36l.72-1.01,.14-.14,2.59,1.73c-.58,.86-1.22,1.66-1.94,2.3-.14,.14-.22,.22-.29,.29-1.44,1.37-3.1,2.38-4.97,2.95-1.44,.43-2.95,.72-4.54,.72-9.14,0-13.97-7.49-13.97-14.91s4.82-14.83,13.97-14.83c3.89,0,7.27,1.37,9.72,3.82l7.2-4.68c-4.18-4.68-10.08-7.27-16.92-7.27-13.03,0-22.54,9.65-22.54,22.97s9.5,22.97,22.54,22.97c2.52,0,4.9-.36,7.13-1.01,3.82-1.15,7.2-3.31,9.79-6.26v-.07c.65-.72,1.3-1.51,1.87-2.3Z"/>
  <path class="cls-1" d="M506.95,.86V14.83h-11.09V51.34h-3.02V11.81h11.09V3.89h-30.67v7.92h11.09V51.34h-3.02V14.83h-11.09V.86h36.72Z"/>
</svg>